<?xml version="1.0" encoding="UTF-8" standalone="no"?><svg xmlns="http://www.w3.org/2000/svg" xmlns:xlink="http://www.w3.org/1999/xlink" clip-rule="evenodd" stroke-miterlimit="10" viewBox="0 0 1024 768"><desc>SVG generated by Keynote</desc><defs></defs><g transform="matrix(1.00, 0.00, -0.00, -1.00, 0.0, 768.0)"><path d="M 0.0 768.0 L 1024.0 768.0 L 1024.0 0.0 L 0.0 0.0 Z M 0.0 768.0 " fill="#000000"></path><text xml:space="preserve" font-family="Helvetica-Light,Helvetica" font-size="48.0" fill="#DCDDE0" transform="matrix(1.00, 0.00, -0.00, -1.00, 288.3, 378.0)">I</text><text xml:space="preserve" font-family="Helvetica-Light,Helvetica" font-size="48.0" fill="#DCDDE0" transform="matrix(1.00, 0.00, -0.00, -1.00, 301.7, 378.0)">n</text><text xml:space="preserve" font-family="Helvetica-Light,Helvetica" font-size="48.0" fill="#DCDDE0" transform="matrix(1.00, 0.00, -0.00, -1.00, 328.4, 378.0)">t</text><text xml:space="preserve" font-family="Helvetica-Light,Helvetica" font-size="48.0" fill="#DCDDE0" transform="matrix(1.00, 0.00, -0.00, -1.00, 341.7, 378.0)">r</text><text xml:space="preserve" font-family="Helvetica-Light,Helvetica" font-size="48.0" fill="#DCDDE0" transform="matrix(1.00, 0.00, -0.00, -1.00, 356.8, 378.0)">o</text><text xml:space="preserve" font-family="Helvetica-Light,Helvetica" font-size="48.0" fill="#DCDDE0" transform="matrix(1.00, 0.00, -0.00, -1.00, 383.5, 378.0)">d</text><text xml:space="preserve" font-family="Helvetica-Light,Helvetica" font-size="48.0" fill="#DCDDE0" transform="matrix(1.00, 0.00, -0.00, -1.00, 412.8, 378.0)">u</text><text xml:space="preserve" font-family="Helvetica-Light,Helvetica" font-size="48.0" fill="#DCDDE0" transform="matrix(1.00, 0.00, -0.00, -1.00, 439.5, 378.0)">c</text><text xml:space="preserve" font-family="Helvetica-Light,Helvetica" font-size="48.0" fill="#DCDDE0" transform="matrix(1.00, 0.00, -0.00, -1.00, 466.2, 378.0)">e</text><text xml:space="preserve" font-family="Helvetica-Light,Helvetica" font-size="48.0" fill="#DCDDE0" transform="matrix(1.00, 0.00, -0.00, -1.00, 492.9, 378.0)"> </text><text xml:space="preserve" font-family="Helvetica-Light,Helvetica" font-size="48.0" fill="#DCDDE0" transform="matrix(1.00, 0.00, -0.00, -1.00, 506.2, 378.0)">c</text><text xml:space="preserve" font-family="Helvetica-Light,Helvetica" font-size="48.0" fill="#DCDDE0" transform="matrix(1.00, 0.00, -0.00, -1.00, 532.9, 378.0)">h</text><text xml:space="preserve" font-family="Helvetica-Light,Helvetica" font-size="48.0" fill="#DCDDE0" transform="matrix(1.00, 0.00, -0.00, -1.00, 559.6, 378.0)">a</text><text xml:space="preserve" font-family="Helvetica-Light,Helvetica" font-size="48.0" fill="#DCDDE0" transform="matrix(1.00, 0.00, -0.00, -1.00, 586.3, 378.0)">r</text><text xml:space="preserve" font-family="Helvetica-Light,Helvetica" font-size="48.0" fill="#DCDDE0" transform="matrix(1.00, 0.00, -0.00, -1.00, 602.3, 378.0)">a</text><text xml:space="preserve" font-family="Helvetica-Light,Helvetica" font-size="48.0" fill="#DCDDE0" transform="matrix(1.00, 0.00, -0.00, -1.00, 629.0, 378.0)">c</text><text xml:space="preserve" font-family="Helvetica-Light,Helvetica" font-size="48.0" fill="#DCDDE0" transform="matrix(1.00, 0.00, -0.00, -1.00, 655.7, 378.0)">t</text><text xml:space="preserve" font-family="Helvetica-Light,Helvetica" font-size="48.0" fill="#DCDDE0" transform="matrix(1.00, 0.00, -0.00, -1.00, 669.0, 378.0)">e</text><text xml:space="preserve" font-family="Helvetica-Light,Helvetica" font-size="48.0" fill="#DCDDE0" transform="matrix(1.00, 0.00, -0.00, -1.00, 695.7, 378.0)">r</text><text xml:space="preserve" font-family="Helvetica-Light,Helvetica" font-size="48.0" fill="#DCDDE0" transform="matrix(1.00, 0.00, -0.00, -1.00, 711.7, 378.0)">s</text><text xml:space="preserve" font-family="Helvetica-Light,Helvetica" font-size="48.0" fill="#A6AAA8" transform="matrix(1.00, 0.00, -0.00, -1.00, 300.1, 318.0)">(</text><text xml:space="preserve" font-family="Helvetica-Light,Helvetica" font-size="48.0" fill="#DE6A10" transform="matrix(1.00, 0.00, -0.00, -1.00, 316.1, 318.0)">e</text><text xml:space="preserve" font-family="Helvetica-Light,Helvetica" font-size="48.0" fill="#DE6A10" transform="matrix(1.00, 0.00, -0.00, -1.00, 342.8, 318.0)">x</text><text xml:space="preserve" font-family="Helvetica-Light,Helvetica" font-size="48.0" fill="#DE6A10" transform="matrix(1.00, 0.00, -0.00, -1.00, 366.8, 318.0)">p</text><text xml:space="preserve" font-family="Helvetica-Light,Helvetica" font-size="48.0" fill="#DE6A10" transform="matrix(1.00, 0.00, -0.00, -1.00, 396.1, 318.0)">l</text><text xml:space="preserve" font-family="Helvetica-Light,Helvetica" font-size="48.0" fill="#DE6A10" transform="matrix(1.00, 0.00, -0.00, -1.00, 406.7, 318.0)">i</text><text xml:space="preserve" font-family="Helvetica-Light,Helvetica" font-size="48.0" fill="#DE6A10" transform="matrix(1.00, 0.00, -0.00, -1.00, 417.4, 318.0)">c</text><text xml:space="preserve" font-family="Helvetica-Light,Helvetica" font-size="48.0" fill="#DE6A10" transform="matrix(1.00, 0.00, -0.00, -1.00, 444.1, 318.0)">i</text><text xml:space="preserve" font-family="Helvetica-Light,Helvetica" font-size="48.0" fill="#DE6A10" transform="matrix(1.00, 0.00, -0.00, -1.00, 454.7, 318.0)">t</text><text xml:space="preserve" font-family="Helvetica-Light,Helvetica" font-size="48.0" fill="#DE6A10" transform="matrix(1.00, 0.00, -0.00, -1.00, 468.1, 318.0)"> </text><text xml:space="preserve" font-family="Helvetica-Light,Helvetica" font-size="48.0" fill="#DE6A10" transform="matrix(1.00, 0.00, -0.00, -1.00, 481.4, 318.0)">e</text><text xml:space="preserve" font-family="Helvetica-Light,Helvetica" font-size="48.0" fill="#DE6A10" transform="matrix(1.00, 0.00, -0.00, -1.00, 508.1, 318.0)">n</text><text xml:space="preserve" font-family="Helvetica-Light,Helvetica" font-size="48.0" fill="#DE6A10" transform="matrix(1.00, 0.00, -0.00, -1.00, 534.8, 318.0)">c</text><text xml:space="preserve" font-family="Helvetica-Light,Helvetica" font-size="48.0" fill="#DE6A10" transform="matrix(1.00, 0.00, -0.00, -1.00, 561.5, 318.0)">o</text><text xml:space="preserve" font-family="Helvetica-Light,Helvetica" font-size="48.0" fill="#DE6A10" transform="matrix(1.00, 0.00, -0.00, -1.00, 588.2, 318.0)">d</text><text xml:space="preserve" font-family="Helvetica-Light,Helvetica" font-size="48.0" fill="#DE6A10" transform="matrix(1.00, 0.00, -0.00, -1.00, 617.5, 318.0)">i</text><text xml:space="preserve" font-family="Helvetica-Light,Helvetica" font-size="48.0" fill="#DE6A10" transform="matrix(1.00, 0.00, -0.00, -1.00, 628.2, 318.0)">n</text><text xml:space="preserve" font-family="Helvetica-Light,Helvetica" font-size="48.0" fill="#DE6A10" transform="matrix(1.00, 0.00, -0.00, -1.00, 654.9, 318.0)">g</text><text xml:space="preserve" font-family="Helvetica-Light,Helvetica" font-size="48.0" fill="#DE6A10" transform="matrix(1.00, 0.00, -0.00, -1.00, 684.2, 318.0)">s</text><text xml:space="preserve" font-family="Helvetica-Light,Helvetica" font-size="48.0" fill="#DCDDE0" transform="matrix(1.00, 0.00, -0.00, -1.00, 708.2, 318.0)">)</text></g></svg>