<?xml version="1.0" encoding="UTF-8" standalone="no"?><svg xmlns="http://www.w3.org/2000/svg" xmlns:xlink="http://www.w3.org/1999/xlink" clip-rule="evenodd" stroke-miterlimit="10" viewBox="0 0 1024 768"><desc>SVG generated by Keynote</desc><defs></defs><g transform="matrix(1.00, 0.00, -0.00, -1.00, 0.0, 768.0)"><path d="M 0.0 768.0 L 1024.0 768.0 L 1024.0 0.0 L 0.0 0.0 Z M 0.0 768.0 " fill="#000000"></path><text xml:space="preserve" font-family="Helvetica-Light,Helvetica" font-size="48.0" fill="#DCDDE0" transform="matrix(1.00, 0.00, -0.00, -1.00, 309.2, 479.0)">S</text><text xml:space="preserve" font-family="Helvetica-Light,Helvetica" font-size="48.0" fill="#DCDDE0" transform="matrix(1.00, 0.00, -0.00, -1.00, 338.6, 479.0)">t</text><text xml:space="preserve" font-family="Helvetica-Light,Helvetica" font-size="48.0" fill="#DCDDE0" transform="matrix(1.00, 0.00, -0.00, -1.00, 351.9, 479.0)">r</text><text xml:space="preserve" font-family="Helvetica-Light,Helvetica" font-size="48.0" fill="#DCDDE0" transform="matrix(1.00, 0.00, -0.00, -1.00, 367.9, 479.0)">u</text><text xml:space="preserve" font-family="Helvetica-Light,Helvetica" font-size="48.0" fill="#DCDDE0" transform="matrix(1.00, 0.00, -0.00, -1.00, 394.6, 479.0)">c</text><text xml:space="preserve" font-family="Helvetica-Light,Helvetica" font-size="48.0" fill="#DCDDE0" transform="matrix(1.00, 0.00, -0.00, -1.00, 421.3, 479.0)">t</text><text xml:space="preserve" font-family="Helvetica-Light,Helvetica" font-size="48.0" fill="#DCDDE0" transform="matrix(1.00, 0.00, -0.00, -1.00, 434.6, 479.0)">u</text><text xml:space="preserve" font-family="Helvetica-Light,Helvetica" font-size="48.0" fill="#DCDDE0" transform="matrix(1.00, 0.00, -0.00, -1.00, 461.3, 479.0)">r</text><text xml:space="preserve" font-family="Helvetica-Light,Helvetica" font-size="48.0" fill="#DCDDE0" transform="matrix(1.00, 0.00, -0.00, -1.00, 476.4, 479.0)">e</text><text xml:space="preserve" font-family="Helvetica-Light,Helvetica" font-size="48.0" fill="#DCDDE0" transform="matrix(1.00, 0.00, -0.00, -1.00, 503.1, 479.0)"> </text><text xml:space="preserve" font-family="Helvetica-Light,Helvetica" font-size="48.0" fill="#DCDDE0" transform="matrix(1.00, 0.00, -0.00, -1.00, 516.5, 479.0)">o</text><text xml:space="preserve" font-family="Helvetica-Light,Helvetica" font-size="48.0" fill="#DCDDE0" transform="matrix(1.00, 0.00, -0.00, -1.00, 543.2, 479.0)">f</text><text xml:space="preserve" font-family="Helvetica-Light,Helvetica" font-size="48.0" fill="#DCDDE0" transform="matrix(1.00, 0.00, -0.00, -1.00, 556.5, 479.0)"> </text><text xml:space="preserve" font-family="Helvetica-Light,Helvetica" font-size="48.0" fill="#DCDDE0" transform="matrix(1.00, 0.00, -0.00, -1.00, 569.8, 479.0)">a</text><text xml:space="preserve" font-family="Helvetica-Light,Helvetica" font-size="48.0" fill="#A6AAA8" transform="matrix(1.00, 0.00, -0.00, -1.00, 596.5, 479.0)"> </text><text xml:space="preserve" font-family="Helvetica-Light,Helvetica" font-size="48.0" fill="#DE6A10" transform="matrix(1.00, 0.00, -0.00, -1.00, 609.9, 479.0)">s</text><text xml:space="preserve" font-family="Helvetica-Light,Helvetica" font-size="48.0" fill="#DE6A10" transform="matrix(1.00, 0.00, -0.00, -1.00, 633.9, 479.0)">t</text><text xml:space="preserve" font-family="Helvetica-Light,Helvetica" font-size="48.0" fill="#DE6A10" transform="matrix(1.00, 0.00, -0.00, -1.00, 647.2, 479.0)">o</text><text xml:space="preserve" font-family="Helvetica-Light,Helvetica" font-size="48.0" fill="#DE6A10" transform="matrix(1.00, 0.00, -0.00, -1.00, 673.9, 479.0)">r</text><text xml:space="preserve" font-family="Helvetica-Light,Helvetica" font-size="48.0" fill="#DE6A10" transform="matrix(1.00, 0.00, -0.00, -1.00, 690.8, 479.0)">y</text><text xml:space="preserve" font-family="Helvetica-Light,Helvetica" font-size="32.0" fill="#FEFFFE" transform="matrix(1.00, 0.00, -0.00, -1.00, 132.9, 412.7)">S</text><text xml:space="preserve" font-family="Helvetica-Light,Helvetica" font-size="32.0" fill="#FEFFFE" transform="matrix(1.00, 0.00, -0.00, -1.00, 152.4, 412.7)">e</text><text xml:space="preserve" font-family="Helvetica-Light,Helvetica" font-size="32.0" fill="#FEFFFE" transform="matrix(1.00, 0.00, -0.00, -1.00, 170.2, 412.7)">t</text><text xml:space="preserve" font-family="Helvetica-Light,Helvetica" font-size="32.0" fill="#FEFFFE" transform="matrix(1.00, 0.00, -0.00, -1.00, 179.1, 412.7)"> </text><text xml:space="preserve" font-family="Helvetica-Light,Helvetica" font-size="32.0" fill="#FEFFFE" transform="matrix(1.00, 0.00, -0.00, -1.00, 188.0, 412.7)">t</text><text xml:space="preserve" font-family="Helvetica-Light,Helvetica" font-size="32.0" fill="#FEFFFE" transform="matrix(1.00, 0.00, -0.00, -1.00, 196.9, 412.7)">h</text><text xml:space="preserve" font-family="Helvetica-Light,Helvetica" font-size="32.0" fill="#FEFFFE" transform="matrix(1.00, 0.00, -0.00, -1.00, 214.7, 412.7)">e</text><text xml:space="preserve" font-family="Helvetica-Light,Helvetica" font-size="32.0" fill="#FEFFFE" transform="matrix(1.00, 0.00, -0.00, -1.00, 232.5, 412.7)"> </text><text xml:space="preserve" font-family="Helvetica-Light,Helvetica" font-size="32.0" fill="#DE6A10" transform="matrix(1.00, 0.00, -0.00, -1.00, 241.4, 412.7)">s</text><text xml:space="preserve" font-family="Helvetica-Light,Helvetica" font-size="32.0" fill="#DE6A10" transform="matrix(1.00, 0.00, -0.00, -1.00, 257.4, 412.7)">t</text><text xml:space="preserve" font-family="Helvetica-Light,Helvetica" font-size="32.0" fill="#DE6A10" transform="matrix(1.00, 0.00, -0.00, -1.00, 266.3, 412.7)">a</text><text xml:space="preserve" font-family="Helvetica-Light,Helvetica" font-size="32.0" fill="#DE6A10" transform="matrix(1.00, 0.00, -0.00, -1.00, 284.1, 412.7)">g</text><text xml:space="preserve" font-family="Helvetica-Light,Helvetica" font-size="32.0" fill="#DE6A10" transform="matrix(1.00, 0.00, -0.00, -1.00, 303.6, 412.7)">e</text><g><clipPath id="clip0x7f827d94e4a0"><path d="M 674.0 443.0 L 928.0 443.0 L 928.0 362.0 L 674.0 362.0 Z M 673.6 443.3 "></path></clipPath><g clip-path="url(#clip0x7f827d94e4a0)"><image xlink:href="BE95151D5D686F4EC0B29AC49A0C861A.png" width="254.00" height="81.00" transform="matrix(1.00, 0.00, -0.00, -1.00, 674.0, 443.0)"></image></g></g></g></svg>