<?xml version="1.0" encoding="UTF-8" standalone="no"?><svg xmlns="http://www.w3.org/2000/svg" xmlns:xlink="http://www.w3.org/1999/xlink" clip-rule="evenodd" stroke-miterlimit="10" viewBox="0 0 1024 768"><desc>SVG generated by Keynote</desc><defs></defs><g transform="matrix(1.00, 0.00, -0.00, -1.00, 0.0, 768.0)"><path d="M 0.0 768.0 L 1024.0 768.0 L 1024.0 0.0 L 0.0 0.0 Z M 0.0 768.0 " fill="#000000"></path><text xml:space="preserve" font-family="Helvetica-Light,Helvetica" font-size="36.0" fill="#FEFFFE" transform="matrix(1.00, 0.00, -0.00, -1.00, 156.0, 377.4)">C</text><text xml:space="preserve" font-family="Helvetica-Light,Helvetica" font-size="36.0" fill="#FEFFFE" transform="matrix(1.00, 0.00, -0.00, -1.00, 182.0, 377.4)">o</text><text xml:space="preserve" font-family="Helvetica-Light,Helvetica" font-size="36.0" fill="#FEFFFE" transform="matrix(1.00, 0.00, -0.00, -1.00, 202.0, 377.4)">n</text><text xml:space="preserve" font-family="Helvetica-Light,Helvetica" font-size="36.0" fill="#FEFFFE" transform="matrix(1.00, 0.00, -0.00, -1.00, 222.0, 377.4)">f</text><text xml:space="preserve" font-family="Helvetica-Light,Helvetica" font-size="36.0" fill="#FEFFFE" transform="matrix(1.00, 0.00, -0.00, -1.00, 232.0, 377.4)">u</text><text xml:space="preserve" font-family="Helvetica-Light,Helvetica" font-size="36.0" fill="#FEFFFE" transform="matrix(1.00, 0.00, -0.00, -1.00, 252.0, 377.4)">s</text><text xml:space="preserve" font-family="Helvetica-Light,Helvetica" font-size="36.0" fill="#FEFFFE" transform="matrix(1.00, 0.00, -0.00, -1.00, 270.0, 377.4)">i</text><text xml:space="preserve" font-family="Helvetica-Light,Helvetica" font-size="36.0" fill="#FEFFFE" transform="matrix(1.00, 0.00, -0.00, -1.00, 278.0, 377.4)">n</text><text xml:space="preserve" font-family="Helvetica-Light,Helvetica" font-size="36.0" fill="#FEFFFE" transform="matrix(1.00, 0.00, -0.00, -1.00, 298.0, 377.4)">g</text><text xml:space="preserve" font-family="Helvetica-Light,Helvetica" font-size="36.0" fill="#FEFFFE" transform="matrix(1.00, 0.00, -0.00, -1.00, 736.0, 374.4)">C</text><text xml:space="preserve" font-family="Helvetica-Light,Helvetica" font-size="36.0" fill="#FEFFFE" transform="matrix(1.00, 0.00, -0.00, -1.00, 762.0, 374.4)">o</text><text xml:space="preserve" font-family="Helvetica-Light,Helvetica" font-size="36.0" fill="#FEFFFE" transform="matrix(1.00, 0.00, -0.00, -1.00, 782.0, 374.4)">n</text><text xml:space="preserve" font-family="Helvetica-Light,Helvetica" font-size="36.0" fill="#FEFFFE" transform="matrix(1.00, 0.00, -0.00, -1.00, 802.0, 374.4)">v</text><text xml:space="preserve" font-family="Helvetica-Light,Helvetica" font-size="36.0" fill="#FEFFFE" transform="matrix(1.00, 0.00, -0.00, -1.00, 820.0, 374.4)">i</text><text xml:space="preserve" font-family="Helvetica-Light,Helvetica" font-size="36.0" fill="#FEFFFE" transform="matrix(1.00, 0.00, -0.00, -1.00, 828.0, 374.4)">n</text><text xml:space="preserve" font-family="Helvetica-Light,Helvetica" font-size="36.0" fill="#FEFFFE" transform="matrix(1.00, 0.00, -0.00, -1.00, 848.0, 374.4)">c</text><text xml:space="preserve" font-family="Helvetica-Light,Helvetica" font-size="36.0" fill="#FEFFFE" transform="matrix(1.00, 0.00, -0.00, -1.00, 868.0, 374.4)">i</text><text xml:space="preserve" font-family="Helvetica-Light,Helvetica" font-size="36.0" fill="#FEFFFE" transform="matrix(1.00, 0.00, -0.00, -1.00, 876.0, 374.4)">n</text><text xml:space="preserve" font-family="Helvetica-Light,Helvetica" font-size="36.0" fill="#FEFFFE" transform="matrix(1.00, 0.00, -0.00, -1.00, 896.0, 374.4)">g</text><text xml:space="preserve" font-family="Helvetica-Light,Helvetica" font-size="36.0" fill="#DE6A10" transform="matrix(1.00, 0.00, -0.00, -1.00, 422.7, 418.6)">S</text><text xml:space="preserve" font-family="Helvetica-Light,Helvetica" font-size="36.0" fill="#DE6A10" transform="matrix(1.00, 0.00, -0.00, -1.00, 444.7, 418.6)">t</text><text xml:space="preserve" font-family="Helvetica-Light,Helvetica" font-size="36.0" fill="#DE6A10" transform="matrix(1.00, 0.00, -0.00, -1.00, 454.7, 418.6)">o</text><text xml:space="preserve" font-family="Helvetica-Light,Helvetica" font-size="36.0" fill="#DE6A10" transform="matrix(1.00, 0.00, -0.00, -1.00, 474.7, 418.6)">r</text><text xml:space="preserve" font-family="Helvetica-Light,Helvetica" font-size="36.0" fill="#DE6A10" transform="matrix(1.00, 0.00, -0.00, -1.00, 487.3, 418.6)">y</text><text xml:space="preserve" font-family="Helvetica-Light,Helvetica" font-size="36.0" fill="#DE6A10" transform="matrix(1.00, 0.00, -0.00, -1.00, 505.3, 418.6)">t</text><text xml:space="preserve" font-family="Helvetica-Light,Helvetica" font-size="36.0" fill="#DE6A10" transform="matrix(1.00, 0.00, -0.00, -1.00, 515.3, 418.6)">e</text><text xml:space="preserve" font-family="Helvetica-Light,Helvetica" font-size="36.0" fill="#DE6A10" transform="matrix(1.00, 0.00, -0.00, -1.00, 535.3, 418.6)">l</text><text xml:space="preserve" font-family="Helvetica-Light,Helvetica" font-size="36.0" fill="#DE6A10" transform="matrix(1.00, 0.00, -0.00, -1.00, 543.3, 418.6)">l</text><text xml:space="preserve" font-family="Helvetica-Light,Helvetica" font-size="36.0" fill="#DE6A10" transform="matrix(1.00, 0.00, -0.00, -1.00, 551.3, 418.6)">i</text><text xml:space="preserve" font-family="Helvetica-Light,Helvetica" font-size="36.0" fill="#DE6A10" transform="matrix(1.00, 0.00, -0.00, -1.00, 559.3, 418.6)">n</text><text xml:space="preserve" font-family="Helvetica-Light,Helvetica" font-size="36.0" fill="#DE6A10" transform="matrix(1.00, 0.00, -0.00, -1.00, 579.3, 418.6)">g</text><text xml:space="preserve" font-family="Helvetica-Light,Helvetica" font-size="36.0" fill="#DE6A10" transform="matrix(1.00, 0.00, -0.00, -1.00, 432.0, 322.9)">A</text><text xml:space="preserve" font-family="Helvetica-Light,Helvetica" font-size="36.0" fill="#DE6A10" transform="matrix(1.00, 0.00, -0.00, -1.00, 456.0, 322.9)">n</text><text xml:space="preserve" font-family="Helvetica-Light,Helvetica" font-size="36.0" fill="#DE6A10" transform="matrix(1.00, 0.00, -0.00, -1.00, 476.0, 322.9)">i</text><text xml:space="preserve" font-family="Helvetica-Light,Helvetica" font-size="36.0" fill="#DE6A10" transform="matrix(1.00, 0.00, -0.00, -1.00, 484.0, 322.9)">m</text><text xml:space="preserve" font-family="Helvetica-Light,Helvetica" font-size="36.0" fill="#DE6A10" transform="matrix(1.00, 0.00, -0.00, -1.00, 514.0, 322.9)">a</text><text xml:space="preserve" font-family="Helvetica-Light,Helvetica" font-size="36.0" fill="#DE6A10" transform="matrix(1.00, 0.00, -0.00, -1.00, 534.0, 322.9)">t</text><text xml:space="preserve" font-family="Helvetica-Light,Helvetica" font-size="36.0" fill="#DE6A10" transform="matrix(1.00, 0.00, -0.00, -1.00, 544.0, 322.9)">i</text><text xml:space="preserve" font-family="Helvetica-Light,Helvetica" font-size="36.0" fill="#DE6A10" transform="matrix(1.00, 0.00, -0.00, -1.00, 552.0, 322.9)">o</text><text xml:space="preserve" font-family="Helvetica-Light,Helvetica" font-size="36.0" fill="#DE6A10" transform="matrix(1.00, 0.00, -0.00, -1.00, 572.0, 322.9)">n</text><text xml:space="preserve" font-family="Helvetica-Light,Helvetica" font-size="27.0" fill="#A6AAA8" transform="matrix(1.00, 0.00, -0.00, -1.00, 408.0, 98.2)">M</text><text xml:space="preserve" font-family="Helvetica-Light,Helvetica" font-size="27.0" fill="#A6AAA8" transform="matrix(1.00, 0.00, -0.00, -1.00, 430.4, 98.2)">i</text><text xml:space="preserve" font-family="Helvetica-Light,Helvetica" font-size="27.0" fill="#A6AAA8" transform="matrix(1.00, 0.00, -0.00, -1.00, 436.4, 98.2)">c</text><text xml:space="preserve" font-family="Helvetica-Light,Helvetica" font-size="27.0" fill="#A6AAA8" transform="matrix(1.00, 0.00, -0.00, -1.00, 451.5, 98.2)">h</text><text xml:space="preserve" font-family="Helvetica-Light,Helvetica" font-size="27.0" fill="#A6AAA8" transform="matrix(1.00, 0.00, -0.00, -1.00, 466.5, 98.2)">a</text><text xml:space="preserve" font-family="Helvetica-Light,Helvetica" font-size="27.0" fill="#A6AAA8" transform="matrix(1.00, 0.00, -0.00, -1.00, 481.5, 98.2)">e</text><text xml:space="preserve" font-family="Helvetica-Light,Helvetica" font-size="27.0" fill="#A6AAA8" transform="matrix(1.00, 0.00, -0.00, -1.00, 496.5, 98.2)">l</text><text xml:space="preserve" font-family="Helvetica-Light,Helvetica" font-size="27.0" fill="#A6AAA8" transform="matrix(1.00, 0.00, -0.00, -1.00, 502.5, 98.2)"> </text><text xml:space="preserve" font-family="Helvetica-Light,Helvetica" font-size="27.0" fill="#A6AAA8" transform="matrix(1.00, 0.00, -0.00, -1.00, 510.0, 98.2)">F</text><text xml:space="preserve" font-family="Helvetica-Light,Helvetica" font-size="27.0" fill="#A6AAA8" transform="matrix(1.00, 0.00, -0.00, -1.00, 525.0, 98.2)">r</text><text xml:space="preserve" font-family="Helvetica-Light,Helvetica" font-size="27.0" fill="#A6AAA8" transform="matrix(1.00, 0.00, -0.00, -1.00, 533.5, 98.2)">e</text><text xml:space="preserve" font-family="Helvetica-Light,Helvetica" font-size="27.0" fill="#A6AAA8" transform="matrix(1.00, 0.00, -0.00, -1.00, 548.5, 98.2)">e</text><text xml:space="preserve" font-family="Helvetica-Light,Helvetica" font-size="27.0" fill="#A6AAA8" transform="matrix(1.00, 0.00, -0.00, -1.00, 563.5, 98.2)">m</text><text xml:space="preserve" font-family="Helvetica-Light,Helvetica" font-size="27.0" fill="#A6AAA8" transform="matrix(1.00, 0.00, -0.00, -1.00, 586.0, 98.2)">a</text><text xml:space="preserve" font-family="Helvetica-Light,Helvetica" font-size="27.0" fill="#A6AAA8" transform="matrix(1.00, 0.00, -0.00, -1.00, 601.0, 98.2)">n</text><text xml:space="preserve" font-family="Helvetica-Light,Helvetica" font-size="27.0" fill="#A6AAA8" transform="matrix(1.00, 0.00, -0.00, -1.00, 616.0, 98.2)"> </text><text xml:space="preserve" font-family="Helvetica-Light,Helvetica" font-size="27.0" fill="#A6AAA8" transform="matrix(1.00, 0.00, -0.00, -1.00, 261.4, 66.2)">I</text><text xml:space="preserve" font-family="Helvetica-Light,Helvetica" font-size="27.0" fill="#A6AAA8" transform="matrix(1.00, 0.00, -0.00, -1.00, 268.9, 66.2)">n</text><text xml:space="preserve" font-family="Helvetica-Light,Helvetica" font-size="27.0" fill="#A6AAA8" transform="matrix(1.00, 0.00, -0.00, -1.00, 283.9, 66.2)">s</text><text xml:space="preserve" font-family="Helvetica-Light,Helvetica" font-size="27.0" fill="#A6AAA8" transform="matrix(1.00, 0.00, -0.00, -1.00, 297.4, 66.2)">t</text><text xml:space="preserve" font-family="Helvetica-Light,Helvetica" font-size="27.0" fill="#A6AAA8" transform="matrix(1.00, 0.00, -0.00, -1.00, 304.9, 66.2)">i</text><text xml:space="preserve" font-family="Helvetica-Light,Helvetica" font-size="27.0" fill="#A6AAA8" transform="matrix(1.00, 0.00, -0.00, -1.00, 310.9, 66.2)">t</text><text xml:space="preserve" font-family="Helvetica-Light,Helvetica" font-size="27.0" fill="#A6AAA8" transform="matrix(1.00, 0.00, -0.00, -1.00, 318.4, 66.2)">u</text><text xml:space="preserve" font-family="Helvetica-Light,Helvetica" font-size="27.0" fill="#A6AAA8" transform="matrix(1.00, 0.00, -0.00, -1.00, 333.4, 66.2)">t</text><text xml:space="preserve" font-family="Helvetica-Light,Helvetica" font-size="27.0" fill="#A6AAA8" transform="matrix(1.00, 0.00, -0.00, -1.00, 340.9, 66.2)">e</text><text xml:space="preserve" font-family="Helvetica-Light,Helvetica" font-size="27.0" fill="#A6AAA8" transform="matrix(1.00, 0.00, -0.00, -1.00, 356.0, 66.2)"> </text><text xml:space="preserve" font-family="Helvetica-Light,Helvetica" font-size="27.0" fill="#A6AAA8" transform="matrix(1.00, 0.00, -0.00, -1.00, 363.5, 66.2)">f</text><text xml:space="preserve" font-family="Helvetica-Light,Helvetica" font-size="27.0" fill="#A6AAA8" transform="matrix(1.00, 0.00, -0.00, -1.00, 371.0, 66.2)">o</text><text xml:space="preserve" font-family="Helvetica-Light,Helvetica" font-size="27.0" fill="#A6AAA8" transform="matrix(1.00, 0.00, -0.00, -1.00, 386.0, 66.2)">r</text><text xml:space="preserve" font-family="Helvetica-Light,Helvetica" font-size="27.0" fill="#A6AAA8" transform="matrix(1.00, 0.00, -0.00, -1.00, 395.0, 66.2)"> </text><text xml:space="preserve" font-family="Helvetica-Light,Helvetica" font-size="27.0" fill="#A6AAA8" transform="matrix(1.00, 0.00, -0.00, -1.00, 402.5, 66.2)">H</text><text xml:space="preserve" font-family="Helvetica-Light,Helvetica" font-size="27.0" fill="#A6AAA8" transform="matrix(1.00, 0.00, -0.00, -1.00, 422.0, 66.2)">e</text><text xml:space="preserve" font-family="Helvetica-Light,Helvetica" font-size="27.0" fill="#A6AAA8" transform="matrix(1.00, 0.00, -0.00, -1.00, 437.0, 66.2)">a</text><text xml:space="preserve" font-family="Helvetica-Light,Helvetica" font-size="27.0" fill="#A6AAA8" transform="matrix(1.00, 0.00, -0.00, -1.00, 452.0, 66.2)">l</text><text xml:space="preserve" font-family="Helvetica-Light,Helvetica" font-size="27.0" fill="#A6AAA8" transform="matrix(1.00, 0.00, -0.00, -1.00, 458.0, 66.2)">t</text><text xml:space="preserve" font-family="Helvetica-Light,Helvetica" font-size="27.0" fill="#A6AAA8" transform="matrix(1.00, 0.00, -0.00, -1.00, 465.5, 66.2)">h</text><text xml:space="preserve" font-family="Helvetica-Light,Helvetica" font-size="27.0" fill="#A6AAA8" transform="matrix(1.00, 0.00, -0.00, -1.00, 480.5, 66.2)"> </text><text xml:space="preserve" font-family="Helvetica-Light,Helvetica" font-size="27.0" fill="#A6AAA8" transform="matrix(1.00, 0.00, -0.00, -1.00, 488.0, 66.2)">M</text><text xml:space="preserve" font-family="Helvetica-Light,Helvetica" font-size="27.0" fill="#A6AAA8" transform="matrix(1.00, 0.00, -0.00, -1.00, 510.5, 66.2)">e</text><text xml:space="preserve" font-family="Helvetica-Light,Helvetica" font-size="27.0" fill="#A6AAA8" transform="matrix(1.00, 0.00, -0.00, -1.00, 525.5, 66.2)">t</text><text xml:space="preserve" font-family="Helvetica-Light,Helvetica" font-size="27.0" fill="#A6AAA8" transform="matrix(1.00, 0.00, -0.00, -1.00, 533.0, 66.2)">r</text><text xml:space="preserve" font-family="Helvetica-Light,Helvetica" font-size="27.0" fill="#A6AAA8" transform="matrix(1.00, 0.00, -0.00, -1.00, 542.0, 66.2)">i</text><text xml:space="preserve" font-family="Helvetica-Light,Helvetica" font-size="27.0" fill="#A6AAA8" transform="matrix(1.00, 0.00, -0.00, -1.00, 548.0, 66.2)">c</text><text xml:space="preserve" font-family="Helvetica-Light,Helvetica" font-size="27.0" fill="#A6AAA8" transform="matrix(1.00, 0.00, -0.00, -1.00, 563.0, 66.2)">s</text><text xml:space="preserve" font-family="Helvetica-Light,Helvetica" font-size="27.0" fill="#A6AAA8" transform="matrix(1.00, 0.00, -0.00, -1.00, 576.5, 66.2)"> </text><text xml:space="preserve" font-family="Helvetica-Light,Helvetica" font-size="27.0" fill="#A6AAA8" transform="matrix(1.00, 0.00, -0.00, -1.00, 584.0, 66.2)">a</text><text xml:space="preserve" font-family="Helvetica-Light,Helvetica" font-size="27.0" fill="#A6AAA8" transform="matrix(1.00, 0.00, -0.00, -1.00, 599.0, 66.2)">n</text><text xml:space="preserve" font-family="Helvetica-Light,Helvetica" font-size="27.0" fill="#A6AAA8" transform="matrix(1.00, 0.00, -0.00, -1.00, 614.0, 66.2)">d</text><text xml:space="preserve" font-family="Helvetica-Light,Helvetica" font-size="27.0" fill="#A6AAA8" transform="matrix(1.00, 0.00, -0.00, -1.00, 630.5, 66.2)"> </text><text xml:space="preserve" font-family="Helvetica-Light,Helvetica" font-size="27.0" fill="#A6AAA8" transform="matrix(1.00, 0.00, -0.00, -1.00, 638.0, 66.2)">E</text><text xml:space="preserve" font-family="Helvetica-Light,Helvetica" font-size="27.0" fill="#A6AAA8" transform="matrix(1.00, 0.00, -0.00, -1.00, 654.5, 66.2)">v</text><text xml:space="preserve" font-family="Helvetica-Light,Helvetica" font-size="27.0" fill="#A6AAA8" transform="matrix(1.00, 0.00, -0.00, -1.00, 668.0, 66.2)">a</text><text xml:space="preserve" font-family="Helvetica-Light,Helvetica" font-size="27.0" fill="#A6AAA8" transform="matrix(1.00, 0.00, -0.00, -1.00, 683.1, 66.2)">l</text><text xml:space="preserve" font-family="Helvetica-Light,Helvetica" font-size="27.0" fill="#A6AAA8" transform="matrix(1.00, 0.00, -0.00, -1.00, 689.1, 66.2)">u</text><text xml:space="preserve" font-family="Helvetica-Light,Helvetica" font-size="27.0" fill="#A6AAA8" transform="matrix(1.00, 0.00, -0.00, -1.00, 704.1, 66.2)">a</text><text xml:space="preserve" font-family="Helvetica-Light,Helvetica" font-size="27.0" fill="#A6AAA8" transform="matrix(1.00, 0.00, -0.00, -1.00, 719.1, 66.2)">t</text><text xml:space="preserve" font-family="Helvetica-Light,Helvetica" font-size="27.0" fill="#A6AAA8" transform="matrix(1.00, 0.00, -0.00, -1.00, 726.6, 66.2)">i</text><text xml:space="preserve" font-family="Helvetica-Light,Helvetica" font-size="27.0" fill="#A6AAA8" transform="matrix(1.00, 0.00, -0.00, -1.00, 732.6, 66.2)">o</text><text xml:space="preserve" font-family="Helvetica-Light,Helvetica" font-size="27.0" fill="#A6AAA8" transform="matrix(1.00, 0.00, -0.00, -1.00, 747.6, 66.2)">n</text><text xml:space="preserve" font-family="Helvetica-Light,Helvetica" font-size="27.0" fill="#A6AAA8" transform="matrix(1.00, 0.00, -0.00, -1.00, 762.6, 66.2)"> </text><path d="M 0.0 0.1 L 400.0 0.1 L 401.0 0.1 " fill="none" stroke="#DE6A10" stroke-width="1.00" transform="matrix(1.00, 0.00, 0.00, -1.00, 325.0, 393.7)"></path><path d="M 725.5 390.5 L 731.5 393.5 L 725.5 396.5 Z M 725.5 390.5 " fill="#DE6A10"></path><path d="M 0.0 -0.4 L 400.0 -0.4 L 401.0 -0.4 " fill="none" stroke="#DE6A10" stroke-width="1.00" transform="matrix(1.00, 0.00, 0.00, -1.00, 325.0, 376.2)"></path><path d="M 725.5 373.5 L 731.5 376.5 L 725.5 379.5 Z M 725.5 373.5 " fill="#DE6A10"></path></g></svg>