<?xml version="1.0" encoding="UTF-8" standalone="no"?><svg xmlns="http://www.w3.org/2000/svg" xmlns:xlink="http://www.w3.org/1999/xlink" clip-rule="evenodd" stroke-miterlimit="10" viewBox="0 0 1024 768"><desc>SVG generated by Keynote</desc><defs></defs><g transform="matrix(1.00, 0.00, -0.00, -1.00, 0.0, 768.0)"><path d="M 0.0 768.0 L 1024.0 768.0 L 1024.0 0.0 L 0.0 0.0 Z M 0.0 768.0 " fill="#000000"></path><text xml:space="preserve" font-family="Helvetica-Light,Helvetica" font-size="33.1" fill="#FEFFFE" transform="matrix(1.00, 0.00, -0.00, -1.00, 179.5, 391.9)">M</text><text xml:space="preserve" font-family="Helvetica-Light,Helvetica" font-size="33.1" fill="#FEFFFE" transform="matrix(1.00, 0.00, -0.00, -1.00, 207.0, 391.9)">a</text><text xml:space="preserve" font-family="Helvetica-Light,Helvetica" font-size="33.1" fill="#FEFFFE" transform="matrix(1.00, 0.00, -0.00, -1.00, 225.4, 391.9)">x</text><text xml:space="preserve" font-family="Helvetica-Light,Helvetica" font-size="33.1" fill="#FEFFFE" transform="matrix(1.00, 0.00, -0.00, -1.00, 241.9, 391.9)">i</text><text xml:space="preserve" font-family="Helvetica-Light,Helvetica" font-size="33.1" fill="#FEFFFE" transform="matrix(1.00, 0.00, -0.00, -1.00, 249.3, 391.9)">m</text><text xml:space="preserve" font-family="Helvetica-Light,Helvetica" font-size="33.1" fill="#FEFFFE" transform="matrix(1.00, 0.00, -0.00, -1.00, 276.8, 391.9)">i</text><text xml:space="preserve" font-family="Helvetica-Light,Helvetica" font-size="33.1" fill="#FEFFFE" transform="matrix(1.00, 0.00, -0.00, -1.00, 284.1, 391.9)">z</text><text xml:space="preserve" font-family="Helvetica-Light,Helvetica" font-size="33.1" fill="#FEFFFE" transform="matrix(1.00, 0.00, -0.00, -1.00, 300.7, 391.9)">e</text><text xml:space="preserve" font-family="Helvetica-Light,Helvetica" font-size="33.1" fill="#FEFFFE" transform="matrix(1.00, 0.00, -0.00, -1.00, 319.0, 391.9)"> </text><text xml:space="preserve" font-family="Helvetica-Light,Helvetica" font-size="33.1" fill="#FEFFFE" transform="matrix(1.00, 0.00, -0.00, -1.00, 328.2, 391.9)">h</text><text xml:space="preserve" font-family="Helvetica-Light,Helvetica" font-size="33.1" fill="#FEFFFE" transform="matrix(1.00, 0.00, -0.00, -1.00, 346.6, 391.9)">o</text><text xml:space="preserve" font-family="Helvetica-Light,Helvetica" font-size="33.1" fill="#FEFFFE" transform="matrix(1.00, 0.00, -0.00, -1.00, 365.0, 391.9)">w</text><text xml:space="preserve" font-family="Helvetica-Light,Helvetica" font-size="33.1" fill="#FEFFFE" transform="matrix(1.00, 0.00, -0.00, -1.00, 388.9, 391.9)"> </text><text xml:space="preserve" font-family="Helvetica-Light,Helvetica" font-size="33.1" fill="#F38F18" transform="matrix(1.00, 0.00, -0.00, -1.00, 398.1, 391.9)">q</text><text xml:space="preserve" font-family="Helvetica-Light,Helvetica" font-size="33.1" fill="#F38F18" transform="matrix(1.00, 0.00, -0.00, -1.00, 418.3, 391.9)">u</text><text xml:space="preserve" font-family="Helvetica-Light,Helvetica" font-size="33.1" fill="#F38F18" transform="matrix(1.00, 0.00, -0.00, -1.00, 436.6, 391.9)">i</text><text xml:space="preserve" font-family="Helvetica-Light,Helvetica" font-size="33.1" fill="#F38F18" transform="matrix(1.00, 0.00, -0.00, -1.00, 444.0, 391.9)">c</text><text xml:space="preserve" font-family="Helvetica-Light,Helvetica" font-size="33.1" fill="#F38F18" transform="matrix(1.00, 0.00, -0.00, -1.00, 462.4, 391.9)">k</text><text xml:space="preserve" font-family="Helvetica-Light,Helvetica" font-size="33.1" fill="#F38F18" transform="matrix(1.00, 0.00, -0.00, -1.00, 478.9, 391.9)">l</text><text xml:space="preserve" font-family="Helvetica-Light,Helvetica" font-size="33.1" fill="#F38F18" transform="matrix(1.00, 0.00, -0.00, -1.00, 486.2, 391.9)">y</text><text xml:space="preserve" font-family="Helvetica-Light,Helvetica" font-size="33.1" fill="#FEFFFE" transform="matrix(1.00, 0.00, -0.00, -1.00, 502.8, 391.9)"> </text><text xml:space="preserve" font-family="Helvetica-Light,Helvetica" font-size="33.1" fill="#FEFFFE" transform="matrix(1.00, 0.00, -0.00, -1.00, 512.0, 391.9)">a</text><text xml:space="preserve" font-family="Helvetica-Light,Helvetica" font-size="33.1" fill="#FEFFFE" transform="matrix(1.00, 0.00, -0.00, -1.00, 530.3, 391.9)">n</text><text xml:space="preserve" font-family="Helvetica-Light,Helvetica" font-size="33.1" fill="#FEFFFE" transform="matrix(1.00, 0.00, -0.00, -1.00, 548.7, 391.9)">d</text><text xml:space="preserve" font-family="Helvetica-Light,Helvetica" font-size="33.1" fill="#FEFFFE" transform="matrix(1.00, 0.00, -0.00, -1.00, 568.9, 391.9)"> </text><text xml:space="preserve" font-family="Helvetica-Light,Helvetica" font-size="33.1" fill="#F38F18" transform="matrix(1.00, 0.00, -0.00, -1.00, 578.1, 391.9)">a</text><text xml:space="preserve" font-family="Helvetica-Light,Helvetica" font-size="33.1" fill="#F38F18" transform="matrix(1.00, 0.00, -0.00, -1.00, 596.5, 391.9)">c</text><text xml:space="preserve" font-family="Helvetica-Light,Helvetica" font-size="33.1" fill="#F38F18" transform="matrix(1.00, 0.00, -0.00, -1.00, 614.9, 391.9)">c</text><text xml:space="preserve" font-family="Helvetica-Light,Helvetica" font-size="33.1" fill="#F38F18" transform="matrix(1.00, 0.00, -0.00, -1.00, 633.2, 391.9)">u</text><text xml:space="preserve" font-family="Helvetica-Light,Helvetica" font-size="33.1" fill="#F38F18" transform="matrix(1.00, 0.00, -0.00, -1.00, 651.6, 391.9)">r</text><text xml:space="preserve" font-family="Helvetica-Light,Helvetica" font-size="33.1" fill="#F38F18" transform="matrix(1.00, 0.00, -0.00, -1.00, 662.6, 391.9)">a</text><text xml:space="preserve" font-family="Helvetica-Light,Helvetica" font-size="33.1" fill="#F38F18" transform="matrix(1.00, 0.00, -0.00, -1.00, 681.0, 391.9)">t</text><text xml:space="preserve" font-family="Helvetica-Light,Helvetica" font-size="33.1" fill="#F38F18" transform="matrix(1.00, 0.00, -0.00, -1.00, 690.2, 391.9)">e</text><text xml:space="preserve" font-family="Helvetica-Light,Helvetica" font-size="33.1" fill="#F38F18" transform="matrix(1.00, 0.00, -0.00, -1.00, 708.6, 391.9)">l</text><text xml:space="preserve" font-family="Helvetica-Light,Helvetica" font-size="33.1" fill="#F38F18" transform="matrix(1.00, 0.00, -0.00, -1.00, 715.9, 391.9)">y</text><text xml:space="preserve" font-family="Helvetica-Light,Helvetica" font-size="33.1" fill="#FEFFFE" transform="matrix(1.00, 0.00, -0.00, -1.00, 732.5, 391.9)"> </text><text xml:space="preserve" font-family="Helvetica-Light,Helvetica" font-size="33.1" fill="#FEFFFE" transform="matrix(1.00, 0.00, -0.00, -1.00, 741.7, 391.9)">p</text><text xml:space="preserve" font-family="Helvetica-Light,Helvetica" font-size="33.1" fill="#FEFFFE" transform="matrix(1.00, 0.00, -0.00, -1.00, 761.9, 391.9)">e</text><text xml:space="preserve" font-family="Helvetica-Light,Helvetica" font-size="33.1" fill="#FEFFFE" transform="matrix(1.00, 0.00, -0.00, -1.00, 780.2, 391.9)">o</text><text xml:space="preserve" font-family="Helvetica-Light,Helvetica" font-size="33.1" fill="#FEFFFE" transform="matrix(1.00, 0.00, -0.00, -1.00, 798.6, 391.9)">p</text><text xml:space="preserve" font-family="Helvetica-Light,Helvetica" font-size="33.1" fill="#FEFFFE" transform="matrix(1.00, 0.00, -0.00, -1.00, 818.8, 391.9)">l</text><text xml:space="preserve" font-family="Helvetica-Light,Helvetica" font-size="33.1" fill="#FEFFFE" transform="matrix(1.00, 0.00, -0.00, -1.00, 826.2, 391.9)">e</text><text xml:space="preserve" font-family="Helvetica-Light,Helvetica" font-size="33.1" fill="#FEFFFE" transform="matrix(1.00, 0.00, -0.00, -1.00, 844.5, 391.9)"> </text><text xml:space="preserve" font-family="Helvetica-Light,Helvetica" font-size="33.1" fill="#FEFFFE" transform="matrix(1.00, 0.00, -0.00, -1.00, 261.2, 351.9)">d</text><text xml:space="preserve" font-family="Helvetica-Light,Helvetica" font-size="33.1" fill="#FEFFFE" transform="matrix(1.00, 0.00, -0.00, -1.00, 281.4, 351.9)">e</text><text xml:space="preserve" font-family="Helvetica-Light,Helvetica" font-size="33.1" fill="#FEFFFE" transform="matrix(1.00, 0.00, -0.00, -1.00, 299.8, 351.9)">c</text><text xml:space="preserve" font-family="Helvetica-Light,Helvetica" font-size="33.1" fill="#FEFFFE" transform="matrix(1.00, 0.00, -0.00, -1.00, 318.2, 351.9)">o</text><text xml:space="preserve" font-family="Helvetica-Light,Helvetica" font-size="33.1" fill="#FEFFFE" transform="matrix(1.00, 0.00, -0.00, -1.00, 336.6, 351.9)">d</text><text xml:space="preserve" font-family="Helvetica-Light,Helvetica" font-size="33.1" fill="#FEFFFE" transform="matrix(1.00, 0.00, -0.00, -1.00, 356.8, 351.9)">e</text><text xml:space="preserve" font-family="Helvetica-Light,Helvetica" font-size="33.1" fill="#FEFFFE" transform="matrix(1.00, 0.00, -0.00, -1.00, 375.1, 351.9)"> </text><text xml:space="preserve" font-family="Helvetica-Light,Helvetica" font-size="33.1" fill="#FEFFFE" transform="matrix(1.00, 0.00, -0.00, -1.00, 384.3, 351.9)">i</text><text xml:space="preserve" font-family="Helvetica-Light,Helvetica" font-size="33.1" fill="#FEFFFE" transform="matrix(1.00, 0.00, -0.00, -1.00, 391.7, 351.9)">n</text><text xml:space="preserve" font-family="Helvetica-Light,Helvetica" font-size="33.1" fill="#FEFFFE" transform="matrix(1.00, 0.00, -0.00, -1.00, 410.1, 351.9)">f</text><text xml:space="preserve" font-family="Helvetica-Light,Helvetica" font-size="33.1" fill="#FEFFFE" transform="matrix(1.00, 0.00, -0.00, -1.00, 419.3, 351.9)">o</text><text xml:space="preserve" font-family="Helvetica-Light,Helvetica" font-size="33.1" fill="#FEFFFE" transform="matrix(1.00, 0.00, -0.00, -1.00, 437.6, 351.9)">r</text><text xml:space="preserve" font-family="Helvetica-Light,Helvetica" font-size="33.1" fill="#FEFFFE" transform="matrix(1.00, 0.00, -0.00, -1.00, 449.2, 351.9)">m</text><text xml:space="preserve" font-family="Helvetica-Light,Helvetica" font-size="33.1" fill="#FEFFFE" transform="matrix(1.00, 0.00, -0.00, -1.00, 476.8, 351.9)">a</text><text xml:space="preserve" font-family="Helvetica-Light,Helvetica" font-size="33.1" fill="#FEFFFE" transform="matrix(1.00, 0.00, -0.00, -1.00, 495.2, 351.9)">t</text><text xml:space="preserve" font-family="Helvetica-Light,Helvetica" font-size="33.1" fill="#FEFFFE" transform="matrix(1.00, 0.00, -0.00, -1.00, 504.3, 351.9)">i</text><text xml:space="preserve" font-family="Helvetica-Light,Helvetica" font-size="33.1" fill="#FEFFFE" transform="matrix(1.00, 0.00, -0.00, -1.00, 511.7, 351.9)">o</text><text xml:space="preserve" font-family="Helvetica-Light,Helvetica" font-size="33.1" fill="#FEFFFE" transform="matrix(1.00, 0.00, -0.00, -1.00, 530.1, 351.9)">n</text><text xml:space="preserve" font-family="Helvetica-Light,Helvetica" font-size="33.1" fill="#FEFFFE" transform="matrix(1.00, 0.00, -0.00, -1.00, 548.4, 351.9)"> </text><text xml:space="preserve" font-family="Helvetica-Light,Helvetica" font-size="33.1" fill="#FEFFFE" transform="matrix(1.00, 0.00, -0.00, -1.00, 557.6, 351.9)">f</text><text xml:space="preserve" font-family="Helvetica-Light,Helvetica" font-size="33.1" fill="#FEFFFE" transform="matrix(1.00, 0.00, -0.00, -1.00, 566.8, 351.9)">r</text><text xml:space="preserve" font-family="Helvetica-Light,Helvetica" font-size="33.1" fill="#FEFFFE" transform="matrix(1.00, 0.00, -0.00, -1.00, 577.2, 351.9)">o</text><text xml:space="preserve" font-family="Helvetica-Light,Helvetica" font-size="33.1" fill="#FEFFFE" transform="matrix(1.00, 0.00, -0.00, -1.00, 595.6, 351.9)">m</text><text xml:space="preserve" font-family="Helvetica-Light,Helvetica" font-size="33.1" fill="#FEFFFE" transform="matrix(1.00, 0.00, -0.00, -1.00, 623.2, 351.9)"> </text><text xml:space="preserve" font-family="Helvetica-Light,Helvetica" font-size="33.1" fill="#FEFFFE" transform="matrix(1.00, 0.00, -0.00, -1.00, 632.4, 351.9)">g</text><text xml:space="preserve" font-family="Helvetica-Light,Helvetica" font-size="33.1" fill="#FEFFFE" transform="matrix(1.00, 0.00, -0.00, -1.00, 652.6, 351.9)">r</text><text xml:space="preserve" font-family="Helvetica-Light,Helvetica" font-size="33.1" fill="#FEFFFE" transform="matrix(1.00, 0.00, -0.00, -1.00, 663.6, 351.9)">a</text><text xml:space="preserve" font-family="Helvetica-Light,Helvetica" font-size="33.1" fill="#FEFFFE" transform="matrix(1.00, 0.00, -0.00, -1.00, 681.9, 351.9)">p</text><text xml:space="preserve" font-family="Helvetica-Light,Helvetica" font-size="33.1" fill="#FEFFFE" transform="matrix(1.00, 0.00, -0.00, -1.00, 702.1, 351.9)">h</text><text xml:space="preserve" font-family="Helvetica-Light,Helvetica" font-size="33.1" fill="#FEFFFE" transform="matrix(1.00, 0.00, -0.00, -1.00, 720.5, 351.9)">i</text><text xml:space="preserve" font-family="Helvetica-Light,Helvetica" font-size="33.1" fill="#FEFFFE" transform="matrix(1.00, 0.00, -0.00, -1.00, 727.9, 351.9)">c</text><text xml:space="preserve" font-family="Helvetica-Light,Helvetica" font-size="33.1" fill="#FEFFFE" transform="matrix(1.00, 0.00, -0.00, -1.00, 746.2, 351.9)">s</text></g></svg>