<?xml version="1.0" encoding="UTF-8" standalone="no"?><svg xmlns="http://www.w3.org/2000/svg" xmlns:xlink="http://www.w3.org/1999/xlink" clip-rule="evenodd" stroke-miterlimit="10" viewBox="0 0 1024 768"><desc>SVG generated by Keynote</desc><defs></defs><g transform="matrix(1.00, 0.00, -0.00, -1.00, 0.0, 768.0)"><path d="M 0.0 768.0 L 1024.0 768.0 L 1024.0 0.0 L 0.0 0.0 Z M 0.0 768.0 " fill="#000000"></path><text xml:space="preserve" font-family="Helvetica-Light,Helvetica" font-size="48.0" fill="#DCDDE0" transform="matrix(1.00, 0.00, -0.00, -1.00, 302.1, 479.0)">W</text><text xml:space="preserve" font-family="Helvetica-Light,Helvetica" font-size="48.0" fill="#DCDDE0" transform="matrix(1.00, 0.00, -0.00, -1.00, 344.8, 479.0)">h</text><text xml:space="preserve" font-family="Helvetica-Light,Helvetica" font-size="48.0" fill="#DCDDE0" transform="matrix(1.00, 0.00, -0.00, -1.00, 371.5, 479.0)">a</text><text xml:space="preserve" font-family="Helvetica-Light,Helvetica" font-size="48.0" fill="#DCDDE0" transform="matrix(1.00, 0.00, -0.00, -1.00, 398.2, 479.0)">t</text><text xml:space="preserve" font-family="Helvetica-Light,Helvetica" font-size="48.0" fill="#DCDDE0" transform="matrix(1.00, 0.00, -0.00, -1.00, 411.5, 479.0)"> </text><text xml:space="preserve" font-family="Helvetica-Light,Helvetica" font-size="48.0" fill="#DCDDE0" transform="matrix(1.00, 0.00, -0.00, -1.00, 424.9, 479.0)">w</text><text xml:space="preserve" font-family="Helvetica-Light,Helvetica" font-size="48.0" fill="#DCDDE0" transform="matrix(1.00, 0.00, -0.00, -1.00, 459.5, 479.0)">a</text><text xml:space="preserve" font-family="Helvetica-Light,Helvetica" font-size="48.0" fill="#DCDDE0" transform="matrix(1.00, 0.00, -0.00, -1.00, 486.2, 479.0)">s</text><text xml:space="preserve" font-family="Helvetica-Light,Helvetica" font-size="48.0" fill="#A6AAA8" transform="matrix(1.00, 0.00, -0.00, -1.00, 510.2, 479.0)"> </text><text xml:space="preserve" font-family="Helvetica-Light,Helvetica" font-size="48.0" fill="#DE6A10" transform="matrix(1.00, 0.00, -0.00, -1.00, 523.5, 479.0)">d</text><text xml:space="preserve" font-family="Helvetica-Light,Helvetica" font-size="48.0" fill="#DE6A10" transform="matrix(1.00, 0.00, -0.00, -1.00, 552.9, 479.0)">i</text><text xml:space="preserve" font-family="Helvetica-Light,Helvetica" font-size="48.0" fill="#DE6A10" transform="matrix(1.00, 0.00, -0.00, -1.00, 563.5, 479.0)">f</text><text xml:space="preserve" font-family="Helvetica-Light,Helvetica" font-size="48.0" fill="#DE6A10" transform="matrix(1.00, 0.00, -0.00, -1.00, 576.0, 479.0)">f</text><text xml:space="preserve" font-family="Helvetica-Light,Helvetica" font-size="48.0" fill="#DE6A10" transform="matrix(1.00, 0.00, -0.00, -1.00, 589.4, 479.0)">e</text><text xml:space="preserve" font-family="Helvetica-Light,Helvetica" font-size="48.0" fill="#DE6A10" transform="matrix(1.00, 0.00, -0.00, -1.00, 616.0, 479.0)">r</text><text xml:space="preserve" font-family="Helvetica-Light,Helvetica" font-size="48.0" fill="#DE6A10" transform="matrix(1.00, 0.00, -0.00, -1.00, 631.2, 479.0)">e</text><text xml:space="preserve" font-family="Helvetica-Light,Helvetica" font-size="48.0" fill="#DE6A10" transform="matrix(1.00, 0.00, -0.00, -1.00, 657.8, 479.0)">n</text><text xml:space="preserve" font-family="Helvetica-Light,Helvetica" font-size="48.0" fill="#DE6A10" transform="matrix(1.00, 0.00, -0.00, -1.00, 684.5, 479.0)">t</text><text xml:space="preserve" font-family="Helvetica-Light,Helvetica" font-size="48.0" fill="#DE6A10" transform="matrix(1.00, 0.00, -0.00, -1.00, 697.9, 479.0)">?</text><g opacity="0.40"><g><clipPath id="clip0x7f827f453480"><path d="M 661.0 358.0 L 1024.0 358.0 L 1024.0 448.0 L 661.0 448.0 Z M 661.0 358.0 "></path></clipPath><g clip-path="url(#clip0x7f827f453480)"><text xml:space="preserve" font-family="Helvetica-Light,Helvetica" font-size="32.0" fill="#DE6A10" transform="matrix(1.00, 0.00, -0.00, -1.00, 665.6, 412.7)">E</text><text xml:space="preserve" font-family="Helvetica-Light,Helvetica" font-size="32.0" fill="#DE6A10" transform="matrix(1.00, 0.00, -0.00, -1.00, 685.2, 412.7)">x</text><text xml:space="preserve" font-family="Helvetica-Light,Helvetica" font-size="32.0" fill="#DE6A10" transform="matrix(1.00, 0.00, -0.00, -1.00, 701.2, 412.7)">p</text><text xml:space="preserve" font-family="Helvetica-Light,Helvetica" font-size="32.0" fill="#DE6A10" transform="matrix(1.00, 0.00, -0.00, -1.00, 720.7, 412.7)">l</text><text xml:space="preserve" font-family="Helvetica-Light,Helvetica" font-size="32.0" fill="#DE6A10" transform="matrix(1.00, 0.00, -0.00, -1.00, 727.9, 412.7)">i</text><text xml:space="preserve" font-family="Helvetica-Light,Helvetica" font-size="32.0" fill="#DE6A10" transform="matrix(1.00, 0.00, -0.00, -1.00, 735.0, 412.7)">c</text><text xml:space="preserve" font-family="Helvetica-Light,Helvetica" font-size="32.0" fill="#DE6A10" transform="matrix(1.00, 0.00, -0.00, -1.00, 752.7, 412.7)">i</text><text xml:space="preserve" font-family="Helvetica-Light,Helvetica" font-size="32.0" fill="#DE6A10" transform="matrix(1.00, 0.00, -0.00, -1.00, 759.9, 412.7)">t</text><text xml:space="preserve" font-family="Helvetica-Light,Helvetica" font-size="32.0" fill="#DE6A10" transform="matrix(1.00, 0.00, -0.00, -1.00, 768.7, 412.7)"> </text></g></g></g><g opacity="0.40"><g><clipPath id="clip0x7f827f458500"><path d="M 65.0 358.0 L 832.0 358.0 L 832.0 448.0 L 65.0 448.0 Z M 65.0 358.0 "></path></clipPath><g clip-path="url(#clip0x7f827f458500)"><text xml:space="preserve" font-family="Helvetica-Light,Helvetica" font-size="32.0" fill="#DE6A10" transform="matrix(1.00, 0.00, -0.00, -1.00, 69.7, 412.7)">U</text><text xml:space="preserve" font-family="Helvetica-Light,Helvetica" font-size="32.0" fill="#DE6A10" transform="matrix(1.00, 0.00, -0.00, -1.00, 92.8, 412.7)">n</text><text xml:space="preserve" font-family="Helvetica-Light,Helvetica" font-size="32.0" fill="#DE6A10" transform="matrix(1.00, 0.00, -0.00, -1.00, 110.6, 412.7)">c</text><text xml:space="preserve" font-family="Helvetica-Light,Helvetica" font-size="32.0" fill="#DE6A10" transform="matrix(1.00, 0.00, -0.00, -1.00, 128.3, 412.7)">l</text><text xml:space="preserve" font-family="Helvetica-Light,Helvetica" font-size="32.0" fill="#DE6A10" transform="matrix(1.00, 0.00, -0.00, -1.00, 135.4, 412.7)">e</text><text xml:space="preserve" font-family="Helvetica-Light,Helvetica" font-size="32.0" fill="#DE6A10" transform="matrix(1.00, 0.00, -0.00, -1.00, 153.2, 412.7)">a</text><text xml:space="preserve" font-family="Helvetica-Light,Helvetica" font-size="32.0" fill="#DE6A10" transform="matrix(1.00, 0.00, -0.00, -1.00, 171.0, 412.7)">r</text><text xml:space="preserve" font-family="Helvetica-Light,Helvetica" font-size="32.0" fill="#DE6A10" transform="matrix(1.00, 0.00, -0.00, -1.00, 181.7, 412.7)"> </text></g></g></g><path d="M -0.3 -0.4 L 209.1 -0.4 L 209.7 -0.4 " fill="none" stroke="#DE6A10" stroke-width="1.00" transform="matrix(1.00, 0.00, 0.00, -1.00, 440.3, 423.1)"></path><path d="M 649.5 420.5 L 655.5 423.5 L 649.5 426.5 Z M 649.5 420.5 " fill="#DE6A10"></path><g opacity="0.40"><g><clipPath id="clip0x7f827f45dc60"><path d="M 65.0 301.0 L 832.0 301.0 L 832.0 391.0 L 65.0 391.0 Z M 65.0 301.0 "></path></clipPath><g clip-path="url(#clip0x7f827f45dc60)"><text xml:space="preserve" font-family="Helvetica-Light,Helvetica" font-size="32.0" fill="#DE6A10" transform="matrix(1.00, 0.00, -0.00, -1.00, 69.7, 355.7)">T</text><text xml:space="preserve" font-family="Helvetica-Light,Helvetica" font-size="32.0" fill="#DE6A10" transform="matrix(1.00, 0.00, -0.00, -1.00, 83.9, 355.7)">o</text><text xml:space="preserve" font-family="Helvetica-Light,Helvetica" font-size="32.0" fill="#DE6A10" transform="matrix(1.00, 0.00, -0.00, -1.00, 101.7, 355.7)">o</text><text xml:space="preserve" font-family="Helvetica-Light,Helvetica" font-size="32.0" fill="#DE6A10" transform="matrix(1.00, 0.00, -0.00, -1.00, 119.5, 355.7)"> </text><text xml:space="preserve" font-family="Helvetica-Light,Helvetica" font-size="32.0" fill="#DE6A10" transform="matrix(1.00, 0.00, -0.00, -1.00, 128.4, 355.7)">m</text><text xml:space="preserve" font-family="Helvetica-Light,Helvetica" font-size="32.0" fill="#DE6A10" transform="matrix(1.00, 0.00, -0.00, -1.00, 155.0, 355.7)">u</text><text xml:space="preserve" font-family="Helvetica-Light,Helvetica" font-size="32.0" fill="#DE6A10" transform="matrix(1.00, 0.00, -0.00, -1.00, 172.8, 355.7)">c</text><text xml:space="preserve" font-family="Helvetica-Light,Helvetica" font-size="32.0" fill="#DE6A10" transform="matrix(1.00, 0.00, -0.00, -1.00, 190.6, 355.7)">h</text><text xml:space="preserve" font-family="Helvetica-Light,Helvetica" font-size="32.0" fill="#DE6A10" transform="matrix(1.00, 0.00, -0.00, -1.00, 208.4, 355.7)"> </text></g></g></g><g opacity="0.40"><g><clipPath id="clip0x7f827f462b70"><path d="M 529.0 301.0 L 1024.0 301.0 L 1024.0 391.0 L 529.0 391.0 Z M 529.0 301.0 "></path></clipPath><g clip-path="url(#clip0x7f827f462b70)"><text xml:space="preserve" font-family="Helvetica-Light,Helvetica" font-size="32.0" fill="#DE6A10" transform="matrix(1.00, 0.00, -0.00, -1.00, 533.2, 355.7)">G</text><text xml:space="preserve" font-family="Helvetica-Light,Helvetica" font-size="32.0" fill="#DE6A10" transform="matrix(1.00, 0.00, -0.00, -1.00, 558.1, 355.7)">r</text><text xml:space="preserve" font-family="Helvetica-Light,Helvetica" font-size="32.0" fill="#DE6A10" transform="matrix(1.00, 0.00, -0.00, -1.00, 568.8, 355.7)">a</text><text xml:space="preserve" font-family="Helvetica-Light,Helvetica" font-size="32.0" fill="#DE6A10" transform="matrix(1.00, 0.00, -0.00, -1.00, 586.6, 355.7)">d</text><text xml:space="preserve" font-family="Helvetica-Light,Helvetica" font-size="32.0" fill="#DE6A10" transform="matrix(1.00, 0.00, -0.00, -1.00, 606.1, 355.7)">u</text><text xml:space="preserve" font-family="Helvetica-Light,Helvetica" font-size="32.0" fill="#DE6A10" transform="matrix(1.00, 0.00, -0.00, -1.00, 623.9, 355.7)">a</text><text xml:space="preserve" font-family="Helvetica-Light,Helvetica" font-size="32.0" fill="#DE6A10" transform="matrix(1.00, 0.00, -0.00, -1.00, 641.7, 355.7)">l</text></g></g></g><path d="M -0.1 -0.3 L 209.1 -0.3 L 209.9 -0.3 " fill="none" stroke="#DE6A10" stroke-width="1.00" transform="matrix(1.00, 0.00, 0.00, -1.00, 310.1, 363.2)"></path><path d="M 519.5 360.5 L 525.5 363.5 L 519.5 366.5 Z M 519.5 360.5 " fill="#DE6A10"></path><g opacity="0.40"><g><clipPath id="clip0x7f827f467c00"><path d="M 65.0 242.0 L 832.0 242.0 L 832.0 332.0 L 65.0 332.0 Z M 65.0 242.0 "></path></clipPath><g clip-path="url(#clip0x7f827f467c00)"><text xml:space="preserve" font-family="Helvetica-Light,Helvetica" font-size="32.0" fill="#DE6A10" transform="matrix(1.00, 0.00, -0.00, -1.00, 69.7, 297.0)">T</text><text xml:space="preserve" font-family="Helvetica-Light,Helvetica" font-size="32.0" fill="#DE6A10" transform="matrix(1.00, 0.00, -0.00, -1.00, 83.9, 297.0)">o</text><text xml:space="preserve" font-family="Helvetica-Light,Helvetica" font-size="32.0" fill="#DE6A10" transform="matrix(1.00, 0.00, -0.00, -1.00, 101.7, 297.0)">o</text><text xml:space="preserve" font-family="Helvetica-Light,Helvetica" font-size="32.0" fill="#DE6A10" transform="matrix(1.00, 0.00, -0.00, -1.00, 119.5, 297.0)"> </text><text xml:space="preserve" font-family="Helvetica-Light,Helvetica" font-size="32.0" fill="#DE6A10" transform="matrix(1.00, 0.00, -0.00, -1.00, 128.4, 297.0)">m</text><text xml:space="preserve" font-family="Helvetica-Light,Helvetica" font-size="32.0" fill="#DE6A10" transform="matrix(1.00, 0.00, -0.00, -1.00, 155.0, 297.0)">a</text><text xml:space="preserve" font-family="Helvetica-Light,Helvetica" font-size="32.0" fill="#DE6A10" transform="matrix(1.00, 0.00, -0.00, -1.00, 172.8, 297.0)">n</text><text xml:space="preserve" font-family="Helvetica-Light,Helvetica" font-size="32.0" fill="#DE6A10" transform="matrix(1.00, 0.00, -0.00, -1.00, 190.6, 297.0)">y</text><text xml:space="preserve" font-family="Helvetica-Light,Helvetica" font-size="32.0" fill="#DE6A10" transform="matrix(1.00, 0.00, -0.00, -1.00, 206.6, 297.0)"> </text></g></g></g><path d="M -0.1 -0.1 L 209.1 -0.1 L 209.9 -0.1 " fill="none" stroke="#DE6A10" stroke-width="1.00" transform="matrix(1.00, 0.00, 0.00, -1.00, 362.1, 303.4)"></path><path d="M 571.5 300.5 L 577.5 303.5 L 571.5 306.5 Z M 571.5 300.5 " fill="#DE6A10"></path><text xml:space="preserve" font-family="Helvetica-Light,Helvetica" font-size="32.0" fill="#DE6A10" transform="matrix(1.00, 0.00, -0.00, -1.00, 587.8, 297.0)">I</text><text xml:space="preserve" font-family="Helvetica-Light,Helvetica" font-size="32.0" fill="#DE6A10" transform="matrix(1.00, 0.00, -0.00, -1.00, 596.7, 297.0)">n</text><text xml:space="preserve" font-family="Helvetica-Light,Helvetica" font-size="32.0" fill="#DE6A10" transform="matrix(1.00, 0.00, -0.00, -1.00, 614.4, 297.0)">d</text><text xml:space="preserve" font-family="Helvetica-Light,Helvetica" font-size="32.0" fill="#DE6A10" transform="matrix(1.00, 0.00, -0.00, -1.00, 634.0, 297.0)">e</text><text xml:space="preserve" font-family="Helvetica-Light,Helvetica" font-size="32.0" fill="#DE6A10" transform="matrix(1.00, 0.00, -0.00, -1.00, 651.8, 297.0)">p</text><text xml:space="preserve" font-family="Helvetica-Light,Helvetica" font-size="32.0" fill="#DE6A10" transform="matrix(1.00, 0.00, -0.00, -1.00, 671.3, 297.0)">e</text><text xml:space="preserve" font-family="Helvetica-Light,Helvetica" font-size="32.0" fill="#DE6A10" transform="matrix(1.00, 0.00, -0.00, -1.00, 689.1, 297.0)">n</text><text xml:space="preserve" font-family="Helvetica-Light,Helvetica" font-size="32.0" fill="#DE6A10" transform="matrix(1.00, 0.00, -0.00, -1.00, 706.9, 297.0)">d</text><text xml:space="preserve" font-family="Helvetica-Light,Helvetica" font-size="32.0" fill="#DE6A10" transform="matrix(1.00, 0.00, -0.00, -1.00, 726.5, 297.0)">e</text><text xml:space="preserve" font-family="Helvetica-Light,Helvetica" font-size="32.0" fill="#DE6A10" transform="matrix(1.00, 0.00, -0.00, -1.00, 744.3, 297.0)">n</text><text xml:space="preserve" font-family="Helvetica-Light,Helvetica" font-size="32.0" fill="#DE6A10" transform="matrix(1.00, 0.00, -0.00, -1.00, 762.1, 297.0)">t</text><text xml:space="preserve" font-family="Helvetica-Light,Helvetica" font-size="32.0" fill="#DE6A10" transform="matrix(1.00, 0.00, -0.00, -1.00, 771.0, 297.0)"> </text><text xml:space="preserve" font-family="Helvetica-Light,Helvetica" font-size="32.0" fill="#FEFFFE" transform="matrix(1.00, 0.00, -0.00, -1.00, 779.9, 297.0)">i</text><text xml:space="preserve" font-family="Helvetica-Light,Helvetica" font-size="32.0" fill="#FEFFFE" transform="matrix(1.00, 0.00, -0.00, -1.00, 787.0, 297.0)">n</text><text xml:space="preserve" font-family="Helvetica-Light,Helvetica" font-size="32.0" fill="#FEFFFE" transform="matrix(1.00, 0.00, -0.00, -1.00, 804.7, 297.0)">t</text><text xml:space="preserve" font-family="Helvetica-Light,Helvetica" font-size="32.0" fill="#FEFFFE" transform="matrix(1.00, 0.00, -0.00, -1.00, 813.6, 297.0)">r</text><text xml:space="preserve" font-family="Helvetica-Light,Helvetica" font-size="32.0" fill="#FEFFFE" transform="matrix(1.00, 0.00, -0.00, -1.00, 823.7, 297.0)">o</text><text xml:space="preserve" font-family="Helvetica-Light,Helvetica" font-size="32.0" fill="#FEFFFE" transform="matrix(1.00, 0.00, -0.00, -1.00, 841.5, 297.0)"> </text><text xml:space="preserve" font-family="Helvetica-Light,Helvetica" font-size="32.0" fill="#FEFFFE" transform="matrix(1.00, 0.00, -0.00, -1.00, 850.4, 297.0)">o</text><text xml:space="preserve" font-family="Helvetica-Light,Helvetica" font-size="32.0" fill="#FEFFFE" transform="matrix(1.00, 0.00, -0.00, -1.00, 868.2, 297.0)">f</text><text xml:space="preserve" font-family="Helvetica-Light,Helvetica" font-size="32.0" fill="#FEFFFE" transform="matrix(1.00, 0.00, -0.00, -1.00, 877.1, 297.0)"> </text><text xml:space="preserve" font-family="Helvetica-Light,Helvetica" font-size="32.0" fill="#FEFFFE" transform="matrix(1.00, 0.00, -0.00, -1.00, 886.0, 297.0)">v</text><text xml:space="preserve" font-family="Helvetica-Light,Helvetica" font-size="32.0" fill="#FEFFFE" transform="matrix(1.00, 0.00, -0.00, -1.00, 902.0, 297.0)">a</text><text xml:space="preserve" font-family="Helvetica-Light,Helvetica" font-size="32.0" fill="#FEFFFE" transform="matrix(1.00, 0.00, -0.00, -1.00, 919.8, 297.0)">r</text><text xml:space="preserve" font-family="Helvetica-Light,Helvetica" font-size="32.0" fill="#FEFFFE" transform="matrix(1.00, 0.00, -0.00, -1.00, 930.4, 297.0)">i</text><text xml:space="preserve" font-family="Helvetica-Light,Helvetica" font-size="32.0" fill="#FEFFFE" transform="matrix(1.00, 0.00, -0.00, -1.00, 937.5, 297.0)">a</text><text xml:space="preserve" font-family="Helvetica-Light,Helvetica" font-size="32.0" fill="#FEFFFE" transform="matrix(1.00, 0.00, -0.00, -1.00, 955.3, 297.0)">b</text><text xml:space="preserve" font-family="Helvetica-Light,Helvetica" font-size="32.0" fill="#FEFFFE" transform="matrix(1.00, 0.00, -0.00, -1.00, 974.9, 297.0)">l</text><text xml:space="preserve" font-family="Helvetica-Light,Helvetica" font-size="32.0" fill="#FEFFFE" transform="matrix(1.00, 0.00, -0.00, -1.00, 982.0, 297.0)">e</text><text xml:space="preserve" font-family="Helvetica-Light,Helvetica" font-size="32.0" fill="#FEFFFE" transform="matrix(1.00, 0.00, -0.00, -1.00, 999.8, 297.0)">s</text></g></svg>