<?xml version="1.0" encoding="UTF-8" standalone="no"?><svg xmlns="http://www.w3.org/2000/svg" xmlns:xlink="http://www.w3.org/1999/xlink" clip-rule="evenodd" stroke-miterlimit="10" viewBox="0 0 1024 768"><desc>SVG generated by Keynote</desc><defs></defs><g transform="matrix(1.00, 0.00, -0.00, -1.00, 0.0, 768.0)"><path d="M 0.0 768.0 L 1024.0 768.0 L 1024.0 0.0 L 0.0 0.0 Z M 0.0 768.0 " fill="#000000"></path><text xml:space="preserve" font-family="Helvetica-Light,Helvetica" font-size="48.0" fill="#FEFFFE" transform="matrix(1.00, 0.00, -0.00, -1.00, 401.3, 377.5)">T</text><text xml:space="preserve" font-family="Helvetica-Light,Helvetica" font-size="48.0" fill="#FEFFFE" transform="matrix(1.00, 0.00, -0.00, -1.00, 428.0, 377.5)">h</text><text xml:space="preserve" font-family="Helvetica-Light,Helvetica" font-size="48.0" fill="#FEFFFE" transform="matrix(1.00, 0.00, -0.00, -1.00, 454.6, 377.5)">a</text><text xml:space="preserve" font-family="Helvetica-Light,Helvetica" font-size="48.0" fill="#FEFFFE" transform="matrix(1.00, 0.00, -0.00, -1.00, 481.3, 377.5)">n</text><text xml:space="preserve" font-family="Helvetica-Light,Helvetica" font-size="48.0" fill="#FEFFFE" transform="matrix(1.00, 0.00, -0.00, -1.00, 508.0, 377.5)">k</text><text xml:space="preserve" font-family="Helvetica-Light,Helvetica" font-size="48.0" fill="#FEFFFE" transform="matrix(1.00, 0.00, -0.00, -1.00, 532.0, 377.5)"> </text><text xml:space="preserve" font-family="Helvetica-Light,Helvetica" font-size="48.0" fill="#FEFFFE" transform="matrix(1.00, 0.00, -0.00, -1.00, 545.4, 377.5)">y</text><text xml:space="preserve" font-family="Helvetica-Light,Helvetica" font-size="48.0" fill="#FEFFFE" transform="matrix(1.00, 0.00, -0.00, -1.00, 569.4, 377.5)">o</text><text xml:space="preserve" font-family="Helvetica-Light,Helvetica" font-size="48.0" fill="#FEFFFE" transform="matrix(1.00, 0.00, -0.00, -1.00, 596.0, 377.5)">u</text><text xml:space="preserve" font-family="Helvetica-Light,Helvetica" font-size="27.7" fill="#DCDDE0" transform="matrix(1.00, 0.00, -0.00, -1.00, 46.2, 182.0)">M</text><text xml:space="preserve" font-family="Helvetica-Light,Helvetica" font-size="27.7" fill="#DCDDE0" transform="matrix(1.00, 0.00, -0.00, -1.00, 69.3, 182.0)">i</text><text xml:space="preserve" font-family="Helvetica-Light,Helvetica" font-size="27.7" fill="#DCDDE0" transform="matrix(1.00, 0.00, -0.00, -1.00, 75.5, 182.0)">c</text><text xml:space="preserve" font-family="Helvetica-Light,Helvetica" font-size="27.7" fill="#DCDDE0" transform="matrix(1.00, 0.00, -0.00, -1.00, 90.9, 182.0)">h</text><text xml:space="preserve" font-family="Helvetica-Light,Helvetica" font-size="27.7" fill="#DCDDE0" transform="matrix(1.00, 0.00, -0.00, -1.00, 106.3, 182.0)">a</text><text xml:space="preserve" font-family="Helvetica-Light,Helvetica" font-size="27.7" fill="#DCDDE0" transform="matrix(1.00, 0.00, -0.00, -1.00, 121.7, 182.0)">e</text><text xml:space="preserve" font-family="Helvetica-Light,Helvetica" font-size="27.7" fill="#DCDDE0" transform="matrix(1.00, 0.00, -0.00, -1.00, 137.1, 182.0)">l</text><text xml:space="preserve" font-family="Helvetica-Light,Helvetica" font-size="27.7" fill="#DCDDE0" transform="matrix(1.00, 0.00, -0.00, -1.00, 143.3, 182.0)"> </text><text xml:space="preserve" font-family="Helvetica-Light,Helvetica" font-size="27.7" fill="#DCDDE0" transform="matrix(1.00, 0.00, -0.00, -1.00, 151.0, 182.0)">F</text><text xml:space="preserve" font-family="Helvetica-Light,Helvetica" font-size="27.7" fill="#DCDDE0" transform="matrix(1.00, 0.00, -0.00, -1.00, 166.4, 182.0)">r</text><text xml:space="preserve" font-family="Helvetica-Light,Helvetica" font-size="27.7" fill="#DCDDE0" transform="matrix(1.00, 0.00, -0.00, -1.00, 175.1, 182.0)">e</text><text xml:space="preserve" font-family="Helvetica-Light,Helvetica" font-size="27.7" fill="#DCDDE0" transform="matrix(1.00, 0.00, -0.00, -1.00, 190.5, 182.0)">e</text><text xml:space="preserve" font-family="Helvetica-Light,Helvetica" font-size="27.7" fill="#DCDDE0" transform="matrix(1.00, 0.00, -0.00, -1.00, 205.9, 182.0)">m</text><text xml:space="preserve" font-family="Helvetica-Light,Helvetica" font-size="27.7" fill="#DCDDE0" transform="matrix(1.00, 0.00, -0.00, -1.00, 229.0, 182.0)">a</text><text xml:space="preserve" font-family="Helvetica-Light,Helvetica" font-size="27.7" fill="#DCDDE0" transform="matrix(1.00, 0.00, -0.00, -1.00, 244.4, 182.0)">n</text><text xml:space="preserve" font-family="Helvetica-Light,Helvetica" font-size="27.7" fill="#DCDDE0" transform="matrix(1.00, 0.00, -0.00, -1.00, 259.8, 182.0)"> </text><text xml:space="preserve" font-family="Helvetica-Light,Helvetica" font-size="27.7" fill="#DCDDE0" transform="matrix(1.00, 0.00, -0.00, -1.00, 46.2, 150.0)">m</text><text xml:space="preserve" font-family="Helvetica-Light,Helvetica" font-size="27.7" fill="#DCDDE0" transform="matrix(1.00, 0.00, -0.00, -1.00, 69.3, 150.0)">i</text><text xml:space="preserve" font-family="Helvetica-Light,Helvetica" font-size="27.7" fill="#DCDDE0" transform="matrix(1.00, 0.00, -0.00, -1.00, 75.5, 150.0)">k</text><text xml:space="preserve" font-family="Helvetica-Light,Helvetica" font-size="27.7" fill="#DCDDE0" transform="matrix(1.00, 0.00, -0.00, -1.00, 89.3, 150.0)">e</text><text xml:space="preserve" font-family="Helvetica-Light,Helvetica" font-size="27.7" fill="#DCDDE0" transform="matrix(1.00, 0.00, -0.00, -1.00, 104.7, 150.0)">f</text><text xml:space="preserve" font-family="Helvetica-Light,Helvetica" font-size="27.7" fill="#DCDDE0" transform="matrix(1.00, 0.00, -0.00, -1.00, 112.4, 150.0)">r</text><text xml:space="preserve" font-family="Helvetica-Light,Helvetica" font-size="27.7" fill="#DCDDE0" transform="matrix(1.00, 0.00, -0.00, -1.00, 121.2, 150.0)">e</text><text xml:space="preserve" font-family="Helvetica-Light,Helvetica" font-size="27.7" fill="#DCDDE0" transform="matrix(1.00, 0.00, -0.00, -1.00, 136.6, 150.0)">e</text><text xml:space="preserve" font-family="Helvetica-Light,Helvetica" font-size="27.7" fill="#DCDDE0" transform="matrix(1.00, 0.00, -0.00, -1.00, 152.0, 150.0)">@</text><text xml:space="preserve" font-family="Helvetica-Light,Helvetica" font-size="27.7" fill="#DCDDE0" transform="matrix(1.00, 0.00, -0.00, -1.00, 174.2, 150.0)">u</text><text xml:space="preserve" font-family="Helvetica-Light,Helvetica" font-size="27.7" fill="#DCDDE0" transform="matrix(1.00, 0.00, -0.00, -1.00, 189.6, 150.0)">w</text><text xml:space="preserve" font-family="Helvetica-Light,Helvetica" font-size="27.7" fill="#DCDDE0" transform="matrix(1.00, 0.00, -0.00, -1.00, 208.1, 150.0)">.</text><text xml:space="preserve" font-family="Helvetica-Light,Helvetica" font-size="27.7" fill="#DCDDE0" transform="matrix(1.00, 0.00, -0.00, -1.00, 215.8, 150.0)">e</text><text xml:space="preserve" font-family="Helvetica-Light,Helvetica" font-size="27.7" fill="#DCDDE0" transform="matrix(1.00, 0.00, -0.00, -1.00, 231.2, 150.0)">d</text><text xml:space="preserve" font-family="Helvetica-Light,Helvetica" font-size="27.7" fill="#DCDDE0" transform="matrix(1.00, 0.00, -0.00, -1.00, 248.1, 150.0)">u</text><text xml:space="preserve" font-family="Helvetica-Light,Helvetica" font-size="27.7" fill="#DCDDE0" transform="matrix(1.00, 0.00, -0.00, -1.00, 263.5, 150.0)"> </text><text xml:space="preserve" font-family="Helvetica-Light,Helvetica" font-size="27.7" fill="#DCDDE0" transform="matrix(1.00, 0.00, -0.00, -1.00, 46.2, 118.0)">@</text><text xml:space="preserve" font-family="Helvetica-Light,Helvetica" font-size="27.7" fill="#DCDDE0" transform="matrix(1.00, 0.00, -0.00, -1.00, 68.4, 118.0)">m</text><text xml:space="preserve" font-family="Helvetica-Light,Helvetica" font-size="27.7" fill="#DCDDE0" transform="matrix(1.00, 0.00, -0.00, -1.00, 91.5, 118.0)">f</text><text xml:space="preserve" font-family="Helvetica-Light,Helvetica" font-size="27.7" fill="#DCDDE0" transform="matrix(1.00, 0.00, -0.00, -1.00, 99.2, 118.0)">_</text><text xml:space="preserve" font-family="Helvetica-Light,Helvetica" font-size="27.7" fill="#DCDDE0" transform="matrix(1.00, 0.00, -0.00, -1.00, 113.0, 118.0)">v</text><text xml:space="preserve" font-family="Helvetica-Light,Helvetica" font-size="27.7" fill="#DCDDE0" transform="matrix(1.00, 0.00, -0.00, -1.00, 126.9, 118.0)">i</text><text xml:space="preserve" font-family="Helvetica-Light,Helvetica" font-size="27.7" fill="#DCDDE0" transform="matrix(1.00, 0.00, -0.00, -1.00, 133.1, 118.0)">z</text><text xml:space="preserve" font-family="Helvetica-Light,Helvetica" font-size="27.7" fill="#DCDDE0" transform="matrix(1.00, 0.00, -0.00, -1.00, 146.9, 118.0)"> </text><text xml:space="preserve" font-family="Helvetica-Light,Helvetica" font-size="27.7" fill="#DCDDE0" transform="matrix(1.00, 0.00, -0.00, -1.00, 46.2, 86.0)">m</text><text xml:space="preserve" font-family="Helvetica-Light,Helvetica" font-size="27.7" fill="#DCDDE0" transform="matrix(1.00, 0.00, -0.00, -1.00, 69.3, 86.0)">f</text><text xml:space="preserve" font-family="Helvetica-Light,Helvetica" font-size="27.7" fill="#DCDDE0" transform="matrix(1.00, 0.00, -0.00, -1.00, 77.0, 86.0)">v</text><text xml:space="preserve" font-family="Helvetica-Light,Helvetica" font-size="27.7" fill="#DCDDE0" transform="matrix(1.00, 0.00, -0.00, -1.00, 90.9, 86.0)">i</text><text xml:space="preserve" font-family="Helvetica-Light,Helvetica" font-size="27.7" fill="#DCDDE0" transform="matrix(1.00, 0.00, -0.00, -1.00, 97.0, 86.0)">z</text><text xml:space="preserve" font-family="Helvetica-Light,Helvetica" font-size="27.7" fill="#DCDDE0" transform="matrix(1.00, 0.00, -0.00, -1.00, 110.9, 86.0)">.</text><text xml:space="preserve" font-family="Helvetica-Light,Helvetica" font-size="27.7" fill="#DCDDE0" transform="matrix(1.00, 0.00, -0.00, -1.00, 118.6, 86.0)">c</text><text xml:space="preserve" font-family="Helvetica-Light,Helvetica" font-size="27.7" fill="#DCDDE0" transform="matrix(1.00, 0.00, -0.00, -1.00, 134.0, 86.0)">o</text><text xml:space="preserve" font-family="Helvetica-Light,Helvetica" font-size="27.7" fill="#DCDDE0" transform="matrix(1.00, 0.00, -0.00, -1.00, 149.4, 86.0)">m</text><text xml:space="preserve" font-family="Helvetica-Light,Helvetica" font-size="27.7" fill="#DCDDE0" transform="matrix(1.00, 0.00, -0.00, -1.00, 172.5, 86.0)"> </text><g><clipPath id="clip0x6080014a14a0"><path d="M 45.2 82.2 L 172.5 82.2 L 172.5 85.6 L 45.2 85.6 Z M 45.2 82.2 "></path></clipPath><g clip-path="url(#clip0x6080014a14a0)"><path d="M 4.0 127.7 L 130.3 127.7 " fill="none" stroke="#DCDDE0" stroke-width="1.39" transform="matrix(1.00, 0.00, 0.00, -1.00, 42.2, 211.6)"></path></g></g><text xml:space="preserve" font-family="Helvetica-Light,Helvetica" font-size="27.7" fill="#DCDDE0" transform="matrix(1.00, 0.00, -0.00, -1.00, 46.2, 54.0)">m</text><text xml:space="preserve" font-family="Helvetica-Light,Helvetica" font-size="27.7" fill="#DCDDE0" transform="matrix(1.00, 0.00, -0.00, -1.00, 69.3, 54.0)">f</text><text xml:space="preserve" font-family="Helvetica-Light,Helvetica" font-size="27.7" fill="#DCDDE0" transform="matrix(1.00, 0.00, -0.00, -1.00, 77.0, 54.0)">v</text><text xml:space="preserve" font-family="Helvetica-Light,Helvetica" font-size="27.7" fill="#DCDDE0" transform="matrix(1.00, 0.00, -0.00, -1.00, 90.9, 54.0)">i</text><text xml:space="preserve" font-family="Helvetica-Light,Helvetica" font-size="27.7" fill="#DCDDE0" transform="matrix(1.00, 0.00, -0.00, -1.00, 97.0, 54.0)">z</text><text xml:space="preserve" font-family="Helvetica-Light,Helvetica" font-size="27.7" fill="#DCDDE0" transform="matrix(1.00, 0.00, -0.00, -1.00, 110.9, 54.0)">.</text><text xml:space="preserve" font-family="Helvetica-Light,Helvetica" font-size="27.7" fill="#DCDDE0" transform="matrix(1.00, 0.00, -0.00, -1.00, 118.6, 54.0)">c</text><text xml:space="preserve" font-family="Helvetica-Light,Helvetica" font-size="27.7" fill="#DCDDE0" transform="matrix(1.00, 0.00, -0.00, -1.00, 134.0, 54.0)">o</text><text xml:space="preserve" font-family="Helvetica-Light,Helvetica" font-size="27.7" fill="#DCDDE0" transform="matrix(1.00, 0.00, -0.00, -1.00, 149.4, 54.0)">m</text><text xml:space="preserve" font-family="Helvetica-Light,Helvetica" font-size="27.7" fill="#DCDDE0" transform="matrix(1.00, 0.00, -0.00, -1.00, 172.5, 54.0)">/</text><text xml:space="preserve" font-family="Helvetica-Light,Helvetica" font-size="27.7" fill="#DCDDE0" transform="matrix(1.00, 0.00, -0.00, -1.00, 180.2, 54.0)">s</text><text xml:space="preserve" font-family="Helvetica-Light,Helvetica" font-size="27.7" fill="#DCDDE0" transform="matrix(1.00, 0.00, -0.00, -1.00, 194.1, 54.0)">t</text><text xml:space="preserve" font-family="Helvetica-Light,Helvetica" font-size="27.7" fill="#DCDDE0" transform="matrix(1.00, 0.00, -0.00, -1.00, 201.8, 54.0)">r</text><text xml:space="preserve" font-family="Helvetica-Light,Helvetica" font-size="27.7" fill="#DCDDE0" transform="matrix(1.00, 0.00, -0.00, -1.00, 211.0, 54.0)">a</text><text xml:space="preserve" font-family="Helvetica-Light,Helvetica" font-size="27.7" fill="#DCDDE0" transform="matrix(1.00, 0.00, -0.00, -1.00, 226.4, 54.0)">t</text><text xml:space="preserve" font-family="Helvetica-Light,Helvetica" font-size="27.7" fill="#DCDDE0" transform="matrix(1.00, 0.00, -0.00, -1.00, 234.1, 54.0)">a</text><g><clipPath id="clip0x6080014a1d40"><path d="M 45.2 50.2 L 249.5 50.2 L 249.5 53.6 L 45.2 53.6 Z M 45.2 50.2 "></path></clipPath><g clip-path="url(#clip0x6080014a1d40)"><path d="M 4.0 159.7 L 207.3 159.7 " fill="none" stroke="#DCDDE0" stroke-width="1.39" transform="matrix(1.00, 0.00, 0.00, -1.00, 42.2, 211.6)"></path></g></g></g></svg>