<?xml version="1.0" encoding="UTF-8" standalone="no"?><svg xmlns="http://www.w3.org/2000/svg" xmlns:xlink="http://www.w3.org/1999/xlink" clip-rule="evenodd" stroke-miterlimit="10" viewBox="0 0 1024 768"><desc>SVG generated by Keynote</desc><defs></defs><g transform="matrix(1.00, 0.00, -0.00, -1.00, 0.0, 768.0)"><path d="M 0.0 768.0 L 1024.0 768.0 L 1024.0 0.0 L 0.0 0.0 Z M 0.0 768.0 " fill="#000000"></path><text xml:space="preserve" font-family="Helvetica-Light,Helvetica" font-size="48.0" fill="#DCDDE0" transform="matrix(1.00, 0.00, -0.00, -1.00, 302.1, 479.0)">W</text><text xml:space="preserve" font-family="Helvetica-Light,Helvetica" font-size="48.0" fill="#DCDDE0" transform="matrix(1.00, 0.00, -0.00, -1.00, 344.8, 479.0)">h</text><text xml:space="preserve" font-family="Helvetica-Light,Helvetica" font-size="48.0" fill="#DCDDE0" transform="matrix(1.00, 0.00, -0.00, -1.00, 371.5, 479.0)">a</text><text xml:space="preserve" font-family="Helvetica-Light,Helvetica" font-size="48.0" fill="#DCDDE0" transform="matrix(1.00, 0.00, -0.00, -1.00, 398.2, 479.0)">t</text><text xml:space="preserve" font-family="Helvetica-Light,Helvetica" font-size="48.0" fill="#DCDDE0" transform="matrix(1.00, 0.00, -0.00, -1.00, 411.5, 479.0)"> </text><text xml:space="preserve" font-family="Helvetica-Light,Helvetica" font-size="48.0" fill="#DCDDE0" transform="matrix(1.00, 0.00, -0.00, -1.00, 424.9, 479.0)">w</text><text xml:space="preserve" font-family="Helvetica-Light,Helvetica" font-size="48.0" fill="#DCDDE0" transform="matrix(1.00, 0.00, -0.00, -1.00, 459.5, 479.0)">a</text><text xml:space="preserve" font-family="Helvetica-Light,Helvetica" font-size="48.0" fill="#DCDDE0" transform="matrix(1.00, 0.00, -0.00, -1.00, 486.2, 479.0)">s</text><text xml:space="preserve" font-family="Helvetica-Light,Helvetica" font-size="48.0" fill="#A6AAA8" transform="matrix(1.00, 0.00, -0.00, -1.00, 510.2, 479.0)"> </text><text xml:space="preserve" font-family="Helvetica-Light,Helvetica" font-size="48.0" fill="#DE6A10" transform="matrix(1.00, 0.00, -0.00, -1.00, 523.5, 479.0)">d</text><text xml:space="preserve" font-family="Helvetica-Light,Helvetica" font-size="48.0" fill="#DE6A10" transform="matrix(1.00, 0.00, -0.00, -1.00, 552.9, 479.0)">i</text><text xml:space="preserve" font-family="Helvetica-Light,Helvetica" font-size="48.0" fill="#DE6A10" transform="matrix(1.00, 0.00, -0.00, -1.00, 563.5, 479.0)">f</text><text xml:space="preserve" font-family="Helvetica-Light,Helvetica" font-size="48.0" fill="#DE6A10" transform="matrix(1.00, 0.00, -0.00, -1.00, 576.0, 479.0)">f</text><text xml:space="preserve" font-family="Helvetica-Light,Helvetica" font-size="48.0" fill="#DE6A10" transform="matrix(1.00, 0.00, -0.00, -1.00, 589.4, 479.0)">e</text><text xml:space="preserve" font-family="Helvetica-Light,Helvetica" font-size="48.0" fill="#DE6A10" transform="matrix(1.00, 0.00, -0.00, -1.00, 616.0, 479.0)">r</text><text xml:space="preserve" font-family="Helvetica-Light,Helvetica" font-size="48.0" fill="#DE6A10" transform="matrix(1.00, 0.00, -0.00, -1.00, 631.2, 479.0)">e</text><text xml:space="preserve" font-family="Helvetica-Light,Helvetica" font-size="48.0" fill="#DE6A10" transform="matrix(1.00, 0.00, -0.00, -1.00, 657.8, 479.0)">n</text><text xml:space="preserve" font-family="Helvetica-Light,Helvetica" font-size="48.0" fill="#DE6A10" transform="matrix(1.00, 0.00, -0.00, -1.00, 684.5, 479.0)">t</text><text xml:space="preserve" font-family="Helvetica-Light,Helvetica" font-size="48.0" fill="#DE6A10" transform="matrix(1.00, 0.00, -0.00, -1.00, 697.9, 479.0)">?</text><image xlink:href="../../E479840F-1AC7-440D-87AC-6556628E33B9/assets/9D289DC3279A84513488AD0E18CA4B0D.png" width="2542.00" height="1180.00" transform="matrix(0.13, 0.00, -0.00, -0.13, 15.0, 730.0)"></image><g><clipPath id="clip0x600000ab2780"><path d="M 688.0 736.0 L 1012.0 736.0 L 1012.0 573.0 L 688.0 573.0 Z M 688.1 736.1 "></path></clipPath><g clip-path="url(#clip0x600000ab2780)"><image xlink:href="../../334BCCF9-7A9A-41CD-B6FC-D4559B253232/assets/E99AD6680D7D206DE291ADEB4E1DF18B.png" width="2048.00" height="1152.00" transform="matrix(0.16, 0.00, -0.00, -0.16, 688.0, 755.0)"></image></g></g></g></svg>