<?xml version="1.0" encoding="UTF-8" standalone="no"?><svg xmlns="http://www.w3.org/2000/svg" xmlns:xlink="http://www.w3.org/1999/xlink" clip-rule="evenodd" stroke-miterlimit="10" viewBox="0 0 1024 768"><desc>SVG generated by Keynote</desc><defs></defs><g transform="matrix(1.00, 0.00, -0.00, -1.00, 0.0, 768.0)"><path d="M 0.0 768.0 L 1024.0 768.0 L 1024.0 0.0 L 0.0 0.0 Z M 0.0 768.0 " fill="#000000"></path><text xml:space="preserve" font-family="Helvetica-Light,Helvetica" font-size="36.0" fill="#000000" transform="matrix(1.00, 0.00, -0.00, -1.00, 291.9, 330.8)">h</text><text xml:space="preserve" font-family="Helvetica-Light,Helvetica" font-size="36.0" fill="#000000" transform="matrix(1.00, 0.00, -0.00, -1.00, 311.9, 330.8)">t</text><text xml:space="preserve" font-family="Helvetica-Light,Helvetica" font-size="36.0" fill="#000000" transform="matrix(1.00, 0.00, -0.00, -1.00, 321.9, 330.8)">t</text><text xml:space="preserve" font-family="Helvetica-Light,Helvetica" font-size="36.0" fill="#000000" transform="matrix(1.00, 0.00, -0.00, -1.00, 331.9, 330.8)">p</text><text xml:space="preserve" font-family="Helvetica-Light,Helvetica" font-size="36.0" fill="#000000" transform="matrix(1.00, 0.00, -0.00, -1.00, 353.9, 330.8)">:</text><text xml:space="preserve" font-family="Helvetica-Light,Helvetica" font-size="36.0" fill="#000000" transform="matrix(1.00, 0.00, -0.00, -1.00, 364.0, 330.8)">/</text><text xml:space="preserve" font-family="Helvetica-Light,Helvetica" font-size="36.0" fill="#000000" transform="matrix(1.00, 0.00, -0.00, -1.00, 374.0, 330.8)">/</text><text xml:space="preserve" font-family="Helvetica-Light,Helvetica" font-size="36.0" fill="#000000" transform="matrix(1.00, 0.00, -0.00, -1.00, 384.0, 330.8)">m</text><text xml:space="preserve" font-family="Helvetica-Light,Helvetica" font-size="36.0" fill="#000000" transform="matrix(1.00, 0.00, -0.00, -1.00, 414.0, 330.8)">f</text><text xml:space="preserve" font-family="Helvetica-Light,Helvetica" font-size="36.0" fill="#000000" transform="matrix(1.00, 0.00, -0.00, -1.00, 424.0, 330.8)">v</text><text xml:space="preserve" font-family="Helvetica-Light,Helvetica" font-size="36.0" fill="#000000" transform="matrix(1.00, 0.00, -0.00, -1.00, 442.0, 330.8)">i</text><text xml:space="preserve" font-family="Helvetica-Light,Helvetica" font-size="36.0" fill="#000000" transform="matrix(1.00, 0.00, -0.00, -1.00, 450.0, 330.8)">z</text><text xml:space="preserve" font-family="Helvetica-Light,Helvetica" font-size="36.0" fill="#000000" transform="matrix(1.00, 0.00, -0.00, -1.00, 468.0, 330.8)">.</text><text xml:space="preserve" font-family="Helvetica-Light,Helvetica" font-size="36.0" fill="#000000" transform="matrix(1.00, 0.00, -0.00, -1.00, 478.0, 330.8)">c</text><text xml:space="preserve" font-family="Helvetica-Light,Helvetica" font-size="36.0" fill="#000000" transform="matrix(1.00, 0.00, -0.00, -1.00, 498.0, 330.8)">o</text><text xml:space="preserve" font-family="Helvetica-Light,Helvetica" font-size="36.0" fill="#000000" transform="matrix(1.00, 0.00, -0.00, -1.00, 518.0, 330.8)">m</text><text xml:space="preserve" font-family="Helvetica-Light,Helvetica" font-size="36.0" fill="#000000" transform="matrix(1.00, 0.00, -0.00, -1.00, 548.0, 330.8)">/</text><text xml:space="preserve" font-family="Helvetica-Light,Helvetica" font-size="36.0" fill="#000000" transform="matrix(1.00, 0.00, -0.00, -1.00, 558.0, 330.8)">g</text><text xml:space="preserve" font-family="Helvetica-Light,Helvetica" font-size="36.0" fill="#000000" transform="matrix(1.00, 0.00, -0.00, -1.00, 580.0, 330.8)">h</text><text xml:space="preserve" font-family="Helvetica-Light,Helvetica" font-size="36.0" fill="#000000" transform="matrix(1.00, 0.00, -0.00, -1.00, 600.0, 330.8)">5</text><text xml:space="preserve" font-family="Helvetica-Light,Helvetica" font-size="36.0" fill="#000000" transform="matrix(1.00, 0.00, -0.00, -1.00, 620.0, 330.8)">9</text><text xml:space="preserve" font-family="Helvetica-Light,Helvetica" font-size="36.0" fill="#000000" transform="matrix(1.00, 0.00, -0.00, -1.00, 640.0, 330.8)">0</text><text xml:space="preserve" font-family="Helvetica-Light,Helvetica" font-size="36.0" fill="#000000" transform="matrix(1.00, 0.00, -0.00, -1.00, 660.1, 330.8)">/</text><text xml:space="preserve" font-family="Helvetica-Light,Helvetica" font-size="36.0" fill="#000000" transform="matrix(1.00, 0.00, -0.00, -1.00, 670.1, 330.8)">s</text><text xml:space="preserve" font-family="Helvetica-Light,Helvetica" font-size="36.0" fill="#000000" transform="matrix(1.00, 0.00, -0.00, -1.00, 688.1, 330.8)">y</text><text xml:space="preserve" font-family="Helvetica-Light,Helvetica" font-size="36.0" fill="#000000" transform="matrix(1.00, 0.00, -0.00, -1.00, 706.1, 330.8)">l</text><text xml:space="preserve" font-family="Helvetica-Light,Helvetica" font-size="36.0" fill="#000000" transform="matrix(1.00, 0.00, -0.00, -1.00, 714.1, 330.8)">l</text><text xml:space="preserve" font-family="Helvetica-Light,Helvetica" font-size="36.0" fill="#000000" transform="matrix(1.00, 0.00, -0.00, -1.00, 722.0, 330.8)">a</text><text xml:space="preserve" font-family="Helvetica-Light,Helvetica" font-size="36.0" fill="#000000" transform="matrix(1.00, 0.00, -0.00, -1.00, 742.1, 330.8)">b</text><text xml:space="preserve" font-family="Helvetica-Light,Helvetica" font-size="36.0" fill="#000000" transform="matrix(1.00, 0.00, -0.00, -1.00, 764.1, 330.8)">u</text><text xml:space="preserve" font-family="Helvetica-Light,Helvetica" font-size="36.0" fill="#000000" transform="matrix(1.00, 0.00, -0.00, -1.00, 784.1, 330.8)">s</text><text xml:space="preserve" font-family="Helvetica-Light,Helvetica" font-size="36.0" fill="#000000" transform="matrix(1.00, 0.00, -0.00, -1.00, 802.1, 330.8)">/</text><image xlink:href="CF0A90CCFA920453278FEDC52A98407D.png" width="1078.00" height="484.00" transform="matrix(0.95, 0.00, -0.00, -0.95, 0.0, 626.0)"></image></g></svg>